<svg width="36" height="36" viewBox="0 0 36 36" fill="none" xmlns="http://www.w3.org/2000/svg">
<g clip-path="url(#clip0_18_203)">
<path d="M28 4C27.175 4 26.38 4.125 25.631 4.357C25.187 3.08468 24.3584 1.98188 23.26 1.20127C22.1615 0.420658 20.8476 0.0008617 19.5 0C16.456 0 13.908 2.096 13.201 4.921C12.4259 4.32641 11.4769 4.00283 10.5 4C9.30653 4 8.16193 4.47411 7.31802 5.31802C6.47411 6.16193 6 7.30653 6 8.5C6 9.104 6.123 9.678 6.339 10.204C5.90404 10.0753 5.45354 10.0067 5 10C2.238 10 0 12.238 0 15C0 17.762 2.238 20 5 20H28C30.1217 20 32.1566 19.1571 33.6569 17.6569C35.1571 16.1566 36 14.1217 36 12C36 9.87827 35.1571 7.84344 33.6569 6.34315C32.1566 4.84285 30.1217 4 28 4Z" fill="#E1E8ED"/>
<path d="M15.375 28.9583H14.5138L15.2179 28.2596C15.2684 28.2091 15.3085 28.1491 15.3358 28.0831C15.3632 28.0171 15.3772 27.9464 15.3772 27.875C15.3772 27.8036 15.3632 27.7328 15.3358 27.6669C15.3085 27.6009 15.2684 27.5409 15.2179 27.4904C15.1674 27.4399 15.1075 27.3998 15.0415 27.3725C14.9755 27.3452 14.9048 27.3311 14.8333 27.3311C14.7619 27.3311 14.6912 27.3452 14.6252 27.3725C14.5592 27.3998 14.4993 27.4399 14.4488 27.4904L12.9863 28.9583H11.8054L13.0513 27.7179C13.1018 27.6674 13.1418 27.6075 13.1692 27.5415C13.1965 27.4755 13.2106 27.4048 13.2106 27.3333C13.2106 27.2619 13.1965 27.1912 13.1692 27.1252C13.1418 27.0592 13.1018 26.9992 13.0513 26.9487C13.0008 26.8982 12.9408 26.8582 12.8748 26.8308C12.8088 26.8035 12.7381 26.7894 12.6667 26.7894C12.5953 26.7894 12.5245 26.8035 12.4585 26.8308C12.3926 26.8582 12.3326 26.8982 12.2821 26.9487L11.0417 28.1946V27.0137L12.5096 25.5512C12.5601 25.5007 12.6002 25.4408 12.6275 25.3748C12.6548 25.3088 12.6689 25.2381 12.6689 25.1667C12.6689 25.0952 12.6548 25.0245 12.6275 24.9585C12.6002 24.8925 12.5601 24.8326 12.5096 24.7821C12.4591 24.7316 12.3991 24.6915 12.3331 24.6642C12.2672 24.6368 12.1964 24.6228 12.125 24.6228C11.9808 24.6228 11.8424 24.6801 11.7404 24.7821L11.0417 25.4862V24.625C11.0417 24.4813 10.9846 24.3436 10.883 24.242C10.7814 24.1404 10.6437 24.0833 10.5 24.0833C10.3564 24.0833 10.2186 24.1404 10.117 24.242C10.0154 24.3436 9.95834 24.4813 9.95834 24.625V25.4862L9.25959 24.7821C9.20909 24.7316 9.14913 24.6915 9.08315 24.6642C9.01716 24.6368 8.94643 24.6228 8.87501 24.6228C8.80359 24.6228 8.73286 24.6368 8.66688 24.6642C8.60089 24.6915 8.54093 24.7316 8.49043 24.7821C8.38843 24.8841 8.33113 25.0224 8.33113 25.1667C8.33113 25.3109 8.38843 25.4492 8.49043 25.5512L9.95834 27.0137V28.1946L8.71793 26.9487C8.66742 26.8982 8.60747 26.8582 8.54148 26.8308C8.47549 26.8035 8.40477 26.7894 8.33334 26.7894C8.26192 26.7894 8.1912 26.8035 8.12521 26.8308C8.05922 26.8582 7.99926 26.8982 7.94876 26.9487C7.89826 26.9992 7.85819 27.0592 7.83086 27.1252C7.80353 27.1912 7.78946 27.2619 7.78946 27.3333C7.78946 27.4048 7.80353 27.4755 7.83086 27.5415C7.85819 27.6075 7.89826 27.6674 7.94876 27.7179L9.19459 28.9583H8.01376L6.55126 27.4904C6.44926 27.3884 6.31092 27.3311 6.16668 27.3311C6.02243 27.3311 5.88409 27.3884 5.78209 27.4904C5.6801 27.5924 5.62279 27.7307 5.62279 27.875C5.62279 28.0192 5.6801 28.1576 5.78209 28.2596L6.48626 28.9583H5.62501C5.48135 28.9583 5.34358 29.0154 5.24199 29.117C5.14041 29.2186 5.08334 29.3563 5.08334 29.5C5.08334 29.6437 5.14041 29.7814 5.24199 29.883C5.34358 29.9846 5.48135 30.0417 5.62501 30.0417H6.48626L5.78209 30.7404C5.73132 30.7908 5.69103 30.8507 5.66353 30.9167C5.63603 30.9827 5.62187 31.0535 5.62187 31.125C5.62187 31.1965 5.63603 31.2673 5.66353 31.3333C5.69103 31.3993 5.73132 31.4592 5.78209 31.5096C5.83245 31.5603 5.89236 31.6006 5.95836 31.6281C6.02437 31.6556 6.09517 31.6698 6.16668 31.6698C6.23818 31.6698 6.30898 31.6556 6.37499 31.6281C6.441 31.6006 6.50091 31.5603 6.55126 31.5096L8.01376 30.0417H9.19459L7.94876 31.2821C7.89799 31.3324 7.85769 31.3923 7.83019 31.4583C7.80269 31.5244 7.78854 31.5952 7.78854 31.6667C7.78854 31.7382 7.80269 31.809 7.83019 31.875C7.85769 31.941 7.89799 32.0009 7.94876 32.0512C7.99912 32.102 8.05902 32.1423 8.12503 32.1698C8.19104 32.1973 8.26184 32.2115 8.33334 32.2115C8.40485 32.2115 8.47565 32.1973 8.54166 32.1698C8.60766 32.1423 8.66757 32.102 8.71793 32.0512L9.95834 30.8054V31.9862L8.49043 33.4487C8.38843 33.5507 8.33113 33.6891 8.33113 33.8333C8.33113 33.9776 8.38843 34.1159 8.49043 34.2179C8.59242 34.3199 8.73076 34.3772 8.87501 34.3772C9.01926 34.3772 9.1576 34.3199 9.25959 34.2179L9.95834 33.5137V34.375C9.95834 34.5187 10.0154 34.6564 10.117 34.758C10.2186 34.8596 10.3564 34.9167 10.5 34.9167C10.6437 34.9167 10.7814 34.8596 10.883 34.758C10.9846 34.6564 11.0417 34.5187 11.0417 34.375V33.5137L11.7404 34.2179C11.7908 34.2687 11.8507 34.309 11.9167 34.3365C11.9827 34.364 12.0535 34.3781 12.125 34.3781C12.1965 34.3781 12.2673 34.364 12.3333 34.3365C12.3993 34.309 12.4592 34.2687 12.5096 34.2179C12.5604 34.1676 12.6007 34.1076 12.6282 34.0416C12.6557 33.9756 12.6698 33.9048 12.6698 33.8333C12.6698 33.7618 12.6557 33.691 12.6282 33.625C12.6007 33.559 12.5604 33.4991 12.5096 33.4487L11.0417 31.9862V30.8054L12.2821 32.0512C12.3324 32.102 12.3924 32.1423 12.4584 32.1698C12.5244 32.1973 12.5952 32.2115 12.6667 32.2115C12.7382 32.2115 12.809 32.1973 12.875 32.1698C12.941 32.1423 13.0009 32.102 13.0513 32.0512C13.102 32.0009 13.1423 31.941 13.1698 31.875C13.1973 31.809 13.2115 31.7382 13.2115 31.6667C13.2115 31.5952 13.1973 31.5244 13.1698 31.4583C13.1423 31.3923 13.102 31.3324 13.0513 31.2821L11.8054 30.0417H12.9863L14.4488 31.5096C14.4991 31.5603 14.559 31.6006 14.625 31.6281C14.691 31.6556 14.7618 31.6698 14.8333 31.6698C14.9049 31.6698 14.9756 31.6556 15.0417 31.6281C15.1077 31.6006 15.1676 31.5603 15.2179 31.5096C15.2687 31.4592 15.309 31.3993 15.3365 31.3333C15.364 31.2673 15.3782 31.1965 15.3782 31.125C15.3782 31.0535 15.364 30.9827 15.3365 30.9167C15.309 30.8507 15.2687 30.7908 15.2179 30.7404L14.5138 30.0417H15.375C15.5187 30.0417 15.6564 29.9846 15.758 29.883C15.8596 29.7814 15.9167 29.6437 15.9167 29.5C15.9167 29.3563 15.8596 29.2186 15.758 29.117C15.6564 29.0154 15.5187 28.9583 15.375 28.9583Z" fill="#87C9FD"/>
<g clip-path="url(#clip1_18_203)">
<path d="M25.75 24.5833H25.0875L25.6292 24.0458C25.668 24.007 25.6988 23.9609 25.7199 23.9101C25.7409 23.8593 25.7517 23.8049 25.7517 23.75C25.7517 23.6951 25.7409 23.6407 25.7199 23.5899C25.6988 23.5391 25.668 23.493 25.6292 23.4542C25.5903 23.4153 25.5442 23.3845 25.4934 23.3635C25.4427 23.3425 25.3883 23.3316 25.3333 23.3316C25.2784 23.3316 25.224 23.3425 25.1732 23.3635C25.1225 23.3845 25.0764 23.4153 25.0375 23.4542L23.9125 24.5833H23.0042L23.9625 23.6292C24.0014 23.5903 24.0322 23.5442 24.0532 23.4934C24.0742 23.4427 24.085 23.3883 24.085 23.3333C24.085 23.2784 24.0742 23.224 24.0532 23.1732C24.0322 23.1225 24.0014 23.0764 23.9625 23.0375C23.9237 22.9987 23.8775 22.9678 23.8268 22.9468C23.776 22.9258 23.7216 22.915 23.6667 22.915C23.6117 22.915 23.5573 22.9258 23.5066 22.9468C23.4558 22.9678 23.4097 22.9987 23.3708 23.0375L22.4167 23.9958V23.0875L23.5458 21.9625C23.5847 21.9237 23.6155 21.8775 23.6365 21.8268C23.6576 21.776 23.6684 21.7216 23.6684 21.6667C23.6684 21.6117 23.6576 21.5573 23.6365 21.5066C23.6155 21.4558 23.5847 21.4097 23.5458 21.3708C23.507 21.332 23.4609 21.3012 23.4101 21.2801C23.3594 21.2591 23.305 21.2483 23.25 21.2483C23.1391 21.2483 23.0326 21.2924 22.9542 21.3708L22.4167 21.9125V21.25C22.4167 21.1395 22.3728 21.0335 22.2946 20.9554C22.2165 20.8772 22.1105 20.8333 22 20.8333C21.8895 20.8333 21.7835 20.8772 21.7054 20.9554C21.6272 21.0335 21.5833 21.1395 21.5833 21.25V21.9125L21.0458 21.3708C21.007 21.332 20.9609 21.3012 20.9101 21.2801C20.8594 21.2591 20.805 21.2483 20.75 21.2483C20.6951 21.2483 20.6407 21.2591 20.5899 21.2801C20.5391 21.3012 20.493 21.332 20.4542 21.3708C20.3757 21.4493 20.3316 21.5557 20.3316 21.6667C20.3316 21.7776 20.3757 21.884 20.4542 21.9625L21.5833 23.0875V23.9958L20.6292 23.0375C20.5903 22.9987 20.5442 22.9678 20.4934 22.9468C20.4427 22.9258 20.3883 22.915 20.3333 22.915C20.2784 22.915 20.224 22.9258 20.1732 22.9468C20.1225 22.9678 20.0764 22.9987 20.0375 23.0375C19.9987 23.0764 19.9678 23.1225 19.9468 23.1732C19.9258 23.224 19.915 23.2784 19.915 23.3333C19.915 23.3883 19.9258 23.4427 19.9468 23.4934C19.9678 23.5442 19.9987 23.5903 20.0375 23.6292L20.9958 24.5833H20.0875L18.9625 23.4542C18.8841 23.3757 18.7776 23.3316 18.6667 23.3316C18.5557 23.3316 18.4493 23.3757 18.3708 23.4542C18.2924 23.5326 18.2483 23.639 18.2483 23.75C18.2483 23.861 18.2924 23.9674 18.3708 24.0458L18.9125 24.5833H18.25C18.1395 24.5833 18.0335 24.6272 17.9554 24.7054C17.8772 24.7835 17.8333 24.8895 17.8333 25C17.8333 25.1105 17.8772 25.2165 17.9554 25.2946C18.0335 25.3728 18.1395 25.4167 18.25 25.4167H18.9125L18.3708 25.9542C18.3318 25.9929 18.3008 26.039 18.2796 26.0898C18.2585 26.1405 18.2476 26.195 18.2476 26.25C18.2476 26.305 18.2585 26.3595 18.2796 26.4102C18.3008 26.461 18.3318 26.5071 18.3708 26.5458C18.4096 26.5849 18.4557 26.6159 18.5064 26.637C18.5572 26.6582 18.6117 26.6691 18.6667 26.6691C18.7217 26.6691 18.7761 26.6582 18.8269 26.637C18.8777 26.6159 18.9238 26.5849 18.9625 26.5458L20.0875 25.4167H20.9958L20.0375 26.3708C19.9985 26.4096 19.9675 26.4557 19.9463 26.5064C19.9252 26.5572 19.9143 26.6117 19.9143 26.6667C19.9143 26.7217 19.9252 26.7761 19.9463 26.8269C19.9675 26.8777 19.9985 26.9238 20.0375 26.9625C20.0762 27.0016 20.1223 27.0326 20.1731 27.0537C20.2239 27.0749 20.2783 27.0858 20.3333 27.0858C20.3883 27.0858 20.4428 27.0749 20.4936 27.0537C20.5444 27.0326 20.5904 27.0016 20.6292 26.9625L21.5833 26.0042V26.9125L20.4542 28.0375C20.3757 28.116 20.3316 28.2224 20.3316 28.3333C20.3316 28.4443 20.3757 28.5507 20.4542 28.6292C20.5326 28.7076 20.6391 28.7517 20.75 28.7517C20.861 28.7517 20.9674 28.7076 21.0458 28.6292L21.5833 28.0875V28.75C21.5833 28.8605 21.6272 28.9665 21.7054 29.0446C21.7835 29.1228 21.8895 29.1667 22 29.1667C22.1105 29.1667 22.2165 29.1228 22.2946 29.0446C22.3728 28.9665 22.4167 28.8605 22.4167 28.75V28.0875L22.9542 28.6292C22.9929 28.6682 23.039 28.6992 23.0898 28.7204C23.1405 28.7415 23.195 28.7524 23.25 28.7524C23.305 28.7524 23.3595 28.7415 23.4103 28.7204C23.461 28.6992 23.5071 28.6682 23.5458 28.6292C23.5849 28.5904 23.6159 28.5444 23.637 28.4936C23.6582 28.4428 23.6691 28.3883 23.6691 28.3333C23.6691 28.2783 23.6582 28.2239 23.637 28.1731C23.6159 28.1223 23.5849 28.0762 23.5458 28.0375L22.4167 26.9125V26.0042L23.3708 26.9625C23.4096 27.0016 23.4557 27.0326 23.5064 27.0537C23.5572 27.0749 23.6117 27.0858 23.6667 27.0858C23.7217 27.0858 23.7761 27.0749 23.8269 27.0537C23.8777 27.0326 23.9238 27.0016 23.9625 26.9625C24.0016 26.9238 24.0326 26.8777 24.0537 26.8269C24.0749 26.7761 24.0858 26.7217 24.0858 26.6667C24.0858 26.6117 24.0749 26.5572 24.0537 26.5064C24.0326 26.4557 24.0016 26.4096 23.9625 26.3708L23.0042 25.4167H23.9125L25.0375 26.5458C25.0762 26.5849 25.1223 26.6159 25.1731 26.637C25.2239 26.6582 25.2783 26.6691 25.3333 26.6691C25.3883 26.6691 25.4428 26.6582 25.4936 26.637C25.5444 26.6159 25.5904 26.5849 25.6292 26.5458C25.6682 26.5071 25.6992 26.461 25.7204 26.4102C25.7415 26.3595 25.7524 26.305 25.7524 26.25C25.7524 26.195 25.7415 26.1405 25.7204 26.0898C25.6992 26.039 25.6682 25.9929 25.6292 25.9542L25.0875 25.4167H25.75C25.8605 25.4167 25.9665 25.3728 26.0446 25.2946C26.1228 25.2165 26.1667 25.1105 26.1667 25C26.1667 24.8895 26.1228 24.7835 26.0446 24.7054C25.9665 24.6272 25.8605 24.5833 25.75 24.5833Z" fill="#B4D7F2"/>
</g>
</g>
<defs>
<clipPath id="clip0_18_203">
<rect width="36" height="36" fill="white"/>
</clipPath>
<clipPath id="clip1_18_203">
<rect width="10" height="10" fill="white" transform="translate(17 20)"/>
</clipPath>
</defs>
</svg>
