<svg width="36" height="36" viewBox="0 0 36 36" fill="none" xmlns="http://www.w3.org/2000/svg">
<path d="M27 8C26.3174 8.00027 25.6385 8.10067 24.985 8.298C24.99 8.198 25 8.101 25 8C24.9991 6.54736 24.471 5.14442 23.5138 4.05172C22.5566 2.95902 21.2354 2.25082 19.7955 2.05863C18.3557 1.86644 16.895 2.20333 15.6847 3.00674C14.4745 3.81014 13.5969 5.02546 13.215 6.427C12.5105 6.1453 11.7588 6.00038 11 6C9.4087 6 7.88258 6.63214 6.75736 7.75736C5.63214 8.88258 5 10.4087 5 12C5 13.5913 5.63214 15.1174 6.75736 16.2426C7.88258 17.3679 9.4087 18 11 18C12.3166 17.9992 13.5963 17.5651 14.6418 16.7649C15.6872 15.9647 16.4404 14.8427 16.785 13.572C17.4895 13.854 18.2412 13.9993 19 14C19.375 14 19.74 13.961 20.096 13.896C20.038 14.256 20 14.623 20 15C20 18.865 23.135 22 27 22C30.865 22 34 18.865 34 15C34 13.1435 33.2625 11.363 31.9497 10.0503C30.637 8.7375 28.8565 8 27 8Z" fill="#CCD6DD"/>
<path d="M31 22C30.533 22 30.09 22.085 29.661 22.204C29.877 21.678 30 21.104 30 20.5C30 19.3065 29.5259 18.1619 28.682 17.318C27.8381 16.4741 26.6935 16 25.5 16C24.5231 16.0028 23.5741 16.3264 22.799 16.921C22.4477 15.516 21.6371 14.2687 20.4958 13.3772C19.3546 12.4856 17.9482 12.0009 16.5 12C15.1524 12.0007 13.8384 12.4205 12.7399 13.2011C11.6414 13.9817 10.8129 15.0846 10.369 16.357C9.26902 16.0169 8.10859 15.9182 6.96699 16.0677C5.82539 16.2172 4.72951 16.6114 3.75421 17.2233C2.77892 17.8352 1.94719 18.6504 1.31584 19.6132C0.684498 20.576 0.268416 21.6638 0.0960191 22.8021C-0.0763776 23.9405 -0.00102609 25.1027 0.316926 26.2092C0.634878 27.3158 1.18794 28.3407 1.93833 29.214C2.68871 30.0872 3.61875 30.7882 4.66489 31.269C5.71103 31.7498 6.84864 31.9992 7.99999 32H31C33.762 32 36 29.762 36 27C36 24.238 33.762 22 31 22Z" fill="#E1E8ED"/>
</svg>
