<svg width="36" height="36" viewBox="0 0 36 36" fill="none" xmlns="http://www.w3.org/2000/svg">
<g clip-path="url(#clip0_18_49)">
<path opacity="0.5" d="M32 0H4C2.93913 0 1.92172 0.421427 1.17157 1.17157C0.421427 1.92172 0 2.93913 0 4L0 10H36V4C36 2.93913 35.5786 1.92172 34.8284 1.17157C34.0783 0.421427 33.0609 0 32 0Z" fill="#F5F8FA"/>
<path opacity="0.5" d="M36 16.368V9.257C35.3439 8.84632 34.586 8.6274 33.812 8.625C32.487 8.625 31.321 9.252 30.553 10.213C29.7264 9.43547 28.6348 9.00176 27.5 9C26.779 9 26.108 9.185 25.504 9.486C24.763 8.018 23.257 7 21.5 7C20.893 7 20.316 7.124 19.788 7.342C19.5745 6.73056 19.1951 6.19059 18.6922 5.7825C18.1893 5.37441 17.5828 5.1143 16.9405 5.03128C16.2982 4.94826 15.6455 5.04559 15.0553 5.3124C14.4652 5.5792 13.961 6.00495 13.599 6.542C12.9548 6.19079 12.2337 6.00458 11.5 6C9.859 6 8.438 6.887 7.652 8.198C7.29014 7.25758 6.65205 6.44875 5.8217 5.87792C4.99135 5.3071 4.00763 5.00104 3 5C1.91508 5.00305 0.861147 5.36209 0 6.022L0 13.977C0.838 14.611 24.5 18 24.5 18C24.5 18 35.362 16.762 36 16.368Z" fill="#E1E8ED"/>
<path opacity="0.5" d="M36 14.771C35.157 13.7 33.864 13 32.396 13C30.399 13 28.715 14.279 28.078 16.059C27.8874 16.0226 27.694 16.0029 27.5 16C26.68 16 25.935 16.294 25.338 16.767C24.6598 16.2698 23.841 16.0012 23 16C22.647 16 22.311 16.06 21.985 16.146C21.987 16.097 22 16.05 22 16C22 14.9391 21.5786 13.9217 20.8284 13.1716C20.0783 12.4214 19.0609 12 18 12C17.4239 12.0016 16.8551 12.1285 16.333 12.3718C15.8108 12.6151 15.3478 12.969 14.976 13.409C14.3521 13.1395 13.6796 13.0003 13 13C12.82 13 12.65 13.034 12.475 13.053C11.9484 11.7683 11.0516 10.6692 9.89855 9.89566C8.74553 9.12211 7.38846 8.70904 6 8.709C4.7905 8.70932 3.60178 9.02353 2.55008 9.62089C1.49839 10.2183 0.619722 11.0783 0 12.117L0 25.661L32.396 24.209C32.396 24.209 35.157 22.866 36 21.243V14.771Z" fill="#CCD6DD"/>
<path opacity="0.5" d="M36 30.499V20.422C35.3697 20.1445 34.6887 20.0008 34 20C32.9924 20.001 32.0086 20.3071 31.1783 20.8779C30.3479 21.4487 29.7099 22.2576 29.348 23.198C28.562 21.887 27.141 21 25.5 21C24.737 21 24.03 21.207 23.401 21.542C23.039 21.0049 22.5348 20.5792 21.9447 20.3124C21.3545 20.0456 20.7018 19.9483 20.0595 20.0313C19.4172 20.1143 18.8107 20.3744 18.3078 20.7825C17.8049 21.1906 17.4255 21.7306 17.212 22.342C16.6693 22.1167 16.0876 22.0005 15.5 22C13.743 22 12.237 23.018 11.496 24.486C10.8776 24.1706 10.1941 24.0042 9.49999 24C8.36491 24.0019 7.27306 24.4356 6.44599 25.213C5.67799 24.252 4.51199 23.625 3.18699 23.625C1.90299 23.625 0.767993 24.216 -0.00100708 25.126V30.499H36Z" fill="#E1E8ED"/>
<path d="M25 25C24.179 25 23.418 25.249 22.783 25.673C22.455 24.7584 21.8305 23.9797 21.0089 23.4609C20.1873 22.9421 19.2158 22.713 18.249 22.81C17.356 22.9026 16.5136 23.2694 15.8374 23.8599C15.1611 24.4504 14.6842 25.2357 14.472 26.108C14.289 26.0925 14.105 26.0925 13.922 26.108C13.1805 26.1863 12.4877 26.5142 11.957 27.038C11.2696 26.6348 10.4719 26.4604 9.679 26.54C9.35601 26.577 9.0393 26.6564 8.737 26.776C8.734 26.729 8.741 26.683 8.737 26.637C8.68664 26.1418 8.5392 25.6613 8.30312 25.223C8.06705 24.7848 7.74694 24.3973 7.3611 24.0828C6.97526 23.7683 6.53124 23.5328 6.05439 23.39C5.57755 23.2471 5.07723 23.1995 4.582 23.25C4.03901 23.3069 3.51488 23.4812 3.04591 23.7607C2.57694 24.0403 2.17434 24.4184 1.866 24.869C1.26357 24.6785 0.628919 24.6115 0 24.672L0 32C0 32.773 0.23 33.489 0.61 34.101C0.715 34.098 29 31.209 29 29C29 26.791 27.209 25 25 25Z" fill="#F5F8FA"/>
<path opacity="0.5" d="M32 36C33.0609 36 34.0783 35.5786 34.8284 34.8284C35.5786 34.0783 36 33.0609 36 32V24.392C35.0635 23.9434 34.0384 23.7101 33 23.709C31.6115 23.709 30.2545 24.1221 29.1014 24.8957C27.9484 25.6692 27.0516 26.7683 26.525 28.053C26.35 28.034 26.18 28 26 28C25.298 28 24.631 28.147 24.024 28.409C23.6522 27.969 23.1892 27.6151 22.667 27.3718C22.1449 27.1285 21.5761 27.0016 21 27C19.9391 27 18.9217 27.4214 18.1716 28.1716C17.4214 28.9217 17 29.9391 17 31C17 31.05 17.013 31.097 17.015 31.146C16.6844 31.0535 16.3432 31.0044 16 31C15.124 31 14.321 31.289 13.662 31.767C13.0492 31.2735 12.2868 31.003 11.5 31C11.3063 31.0028 11.1133 31.0226 10.923 31.059C10.286 29.279 8.602 28 6.604 28C4.617 28 2.939 29.266 2.294 31.03C2.195 31.022 2.101 31 2 31C1.268 31 0.59 31.211 0 31.555V32C0 33.0609 0.421427 34.0783 1.17157 34.8284C1.92172 35.5786 2.93913 36 4 36H32Z" fill="#CCD6DD"/>
<path d="M23.8743 25.949L23.7774 23L21.3183 24.4724C21.041 24.6216 20.8108 24.846 20.6539 25.1201C20.4969 25.3942 20.4195 25.7071 20.4303 26.0232C20.4482 26.4824 20.6447 26.9162 20.9775 27.2311C21.3103 27.546 21.7528 27.7168 22.2097 27.7067C22.4343 27.7032 22.656 27.6547 22.8618 27.5641C23.0676 27.4734 23.2534 27.3425 23.4084 27.1789C23.5633 27.0152 23.6843 26.8222 23.7643 26.6111C23.8443 26.3999 23.8817 26.1749 23.8743 25.949Z" fill="#B4D7F2"/>
<path d="M14.4277 25.949L14.3309 23L11.8709 24.4724C11.5938 24.6218 11.3637 24.8462 11.2068 25.1203C11.0499 25.3943 10.9723 25.7071 10.9829 26.0232C11.0008 26.4824 11.1973 26.9162 11.5301 27.2311C11.863 27.546 12.3055 27.7168 12.7623 27.7067C12.987 27.7032 13.2087 27.6547 13.4146 27.5641C13.6205 27.4735 13.8063 27.3425 13.9613 27.1789C14.1163 27.0153 14.2374 26.8223 14.3175 26.6111C14.3976 26.4 14.4351 26.1749 14.4277 25.949Z" fill="#B4D7F2"/>
<path fill-rule="evenodd" clip-rule="evenodd" d="M8.44579 28.5352L8.34893 25.5861L5.88895 27.0585C5.61181 27.2079 5.38176 27.4323 5.22483 27.7064C5.06791 27.9805 4.99036 28.2932 5.00096 28.6093C5.01905 29.0684 5.21563 29.5021 5.54842 29.817C5.8812 30.1318 6.32358 30.3027 6.78037 30.2928C7.00509 30.2894 7.22688 30.241 7.43278 30.1504C7.63869 30.0598 7.82459 29.9289 7.97963 29.7653C8.13467 29.6017 8.25575 29.4086 8.33578 29.1974C8.41582 28.9862 8.45322 28.7611 8.44579 28.5352ZM18.7134 29.3972L18.6166 26.4482L16.1575 27.9205C15.8802 28.0698 15.65 28.2942 15.4931 28.5683C15.3361 28.8424 15.2587 29.1552 15.2695 29.4713C15.2873 29.9306 15.4838 30.3643 15.8167 30.6792C16.1495 30.9941 16.592 31.165 17.0489 31.1549C17.2735 31.1513 17.4952 31.1028 17.701 31.0122C17.9068 30.9216 18.0926 30.7906 18.2476 30.627C18.4025 30.4634 18.5235 30.2704 18.6035 30.0592C18.6835 29.8481 18.7209 29.623 18.7134 29.3972ZM28.9991 28.5352L28.9022 25.5861L26.4431 27.0585C26.1658 27.2077 25.9357 27.4321 25.7787 27.7062C25.6218 27.9803 25.5443 28.2932 25.5551 28.6093C25.573 29.0685 25.7695 29.5023 26.1023 29.8172C26.4352 30.1321 26.8777 30.3029 27.3345 30.2928C27.5592 30.2893 27.7809 30.2408 27.9867 30.1502C28.1925 30.0595 28.3783 29.9286 28.5332 29.765C28.6882 29.6014 28.8092 29.4083 28.8891 29.1972C28.9691 28.986 29.0065 28.761 28.9991 28.5352Z" fill="#B4D7F2"/>
<path d="M23.0171 33.2419L22.9194 30.2928L20.4603 31.7652C20.183 31.9145 19.9528 32.1389 19.7959 32.413C19.6389 32.6871 19.5615 32.9999 19.5723 33.316C19.5902 33.7752 19.7867 34.209 20.1195 34.5239C20.4523 34.8388 20.8948 35.0097 21.3517 34.9996C21.5764 34.9962 21.7982 34.9477 22.0041 34.8572C22.21 34.7666 22.3959 34.6356 22.551 34.472C22.706 34.3084 22.8271 34.1153 22.9071 33.9041C22.9871 33.6929 23.0245 33.4678 23.0171 33.2419Z" fill="#5DADEC"/>
<path d="M12.7315 32.3798L12.6346 29.4308L10.1746 30.9032C9.89749 31.0526 9.66745 31.277 9.51052 31.5511C9.35359 31.8251 9.27604 32.1379 9.28664 32.454C9.30451 32.9132 9.50103 33.347 9.83387 33.6619C10.1667 33.9768 10.6092 34.1476 11.0661 34.1375C11.2908 34.1341 11.5126 34.0857 11.7185 33.9951C11.9244 33.9045 12.1103 33.7736 12.2653 33.61C12.4204 33.4463 12.5414 33.2533 12.6215 33.0421C12.7015 32.8309 12.7389 32.6057 12.7315 32.3798Z" fill="#5DADEC"/>
<path d="M27.3333 8.4C26.6458 8.4 25.9833 8.50625 25.3592 8.70345C24.9892 7.62198 24.2987 6.6846 23.3833 6.02108C22.4679 5.35756 21.373 5.00073 20.25 5C17.7133 5 15.59 6.7816 15.0008 9.18285C14.3549 8.67745 13.5641 8.40241 12.75 8.4C11.7554 8.4 10.8016 8.80299 10.0983 9.52032C9.39509 10.2376 9 11.2105 9 12.225C9 12.7384 9.1025 13.2263 9.2825 13.6734C8.92003 13.564 8.54462 13.5057 8.16667 13.5C5.865 13.5 4 15.4023 4 17.75C4 20.0977 5.865 22 8.16667 22H27.3333C29.1014 22 30.7971 21.2836 32.0474 20.0083C33.2976 18.7331 34 17.0035 34 15.2C34 13.3965 33.2976 11.6669 32.0474 10.3917C30.7971 9.11643 29.1014 8.4 27.3333 8.4Z" fill="#CCCCCC"/>
</g>
<defs>
<clipPath id="clip0_18_49">
<rect width="36" height="36" fill="white"/>
</clipPath>
</defs>
</svg>
