<svg width="36" height="36" viewBox="0 0 36 36" fill="none" xmlns="http://www.w3.org/2000/svg">
<g clip-path="url(#clip0_20_267)">
<path d="M32 0H4C2.93913 0 1.92172 0.421427 1.17157 1.17157C0.421427 1.92172 0 2.93913 0 4L0 10H36V4C36 2.93913 35.5786 1.92172 34.8284 1.17157C34.0783 0.421427 33.0609 0 32 0Z" fill="#F5F8FA"/>
<path d="M36 16.368V9.257C35.3439 8.84632 34.586 8.6274 33.812 8.625C32.487 8.625 31.321 9.252 30.553 10.213C29.7264 9.43547 28.6348 9.00176 27.5 9C26.779 9 26.108 9.185 25.504 9.486C24.763 8.018 23.257 7 21.5 7C20.893 7 20.316 7.124 19.788 7.342C19.5745 6.73056 19.1951 6.19059 18.6922 5.7825C18.1893 5.37441 17.5828 5.1143 16.9405 5.03128C16.2982 4.94826 15.6455 5.04559 15.0553 5.3124C14.4652 5.5792 13.961 6.00495 13.599 6.542C12.9548 6.19079 12.2337 6.00458 11.5 6C9.859 6 8.438 6.887 7.652 8.198C7.29014 7.25758 6.65205 6.44875 5.8217 5.87792C4.99135 5.3071 4.00763 5.00104 3 5C1.91508 5.00305 0.861147 5.36209 0 6.022L0 13.977C0.838 14.611 24.5 18 24.5 18C24.5 18 35.362 16.762 36 16.368Z" fill="#E1E8ED"/>
<path d="M36 14.771C35.157 13.7 33.864 13 32.396 13C30.399 13 28.715 14.279 28.078 16.059C27.8874 16.0226 27.694 16.0029 27.5 16C26.68 16 25.935 16.294 25.338 16.767C24.6598 16.2698 23.841 16.0012 23 16C22.647 16 22.311 16.06 21.985 16.146C21.987 16.097 22 16.05 22 16C22 14.9391 21.5786 13.9217 20.8284 13.1716C20.0783 12.4214 19.0609 12 18 12C17.4239 12.0016 16.8551 12.1285 16.333 12.3718C15.8108 12.6151 15.3478 12.969 14.976 13.409C14.3521 13.1395 13.6796 13.0003 13 13C12.82 13 12.65 13.034 12.475 13.053C11.9484 11.7683 11.0516 10.6692 9.89855 9.89566C8.74553 9.12211 7.38846 8.70904 6 8.709C4.7905 8.70932 3.60178 9.02353 2.55008 9.62089C1.49839 10.2183 0.619722 11.0783 0 12.117L0 25.661L32.396 24.209C32.396 24.209 35.157 22.866 36 21.243V14.771Z" fill="#CCD6DD"/>
<path d="M36 30.499V20.422C35.3697 20.1445 34.6887 20.0008 34 20C32.9924 20.001 32.0086 20.3071 31.1783 20.8779C30.3479 21.4487 29.7099 22.2576 29.348 23.198C28.562 21.887 27.141 21 25.5 21C24.737 21 24.03 21.207 23.401 21.542C23.039 21.0049 22.5348 20.5792 21.9447 20.3124C21.3545 20.0456 20.7018 19.9483 20.0595 20.0313C19.4172 20.1143 18.8107 20.3744 18.3078 20.7825C17.8049 21.1906 17.4255 21.7306 17.212 22.342C16.6693 22.1167 16.0876 22.0005 15.5 22C13.743 22 12.237 23.018 11.496 24.486C10.8776 24.1706 10.1941 24.0042 9.49999 24C8.36491 24.0019 7.27306 24.4356 6.44599 25.213C5.67799 24.252 4.51199 23.625 3.18699 23.625C1.90299 23.625 0.767993 24.216 -0.00100708 25.126V30.499H36Z" fill="#E1E8ED"/>
<path d="M25 25C24.179 25 23.418 25.249 22.783 25.673C22.455 24.7584 21.8305 23.9797 21.0089 23.4609C20.1873 22.9421 19.2158 22.713 18.249 22.81C17.356 22.9026 16.5136 23.2694 15.8374 23.8599C15.1611 24.4504 14.6842 25.2357 14.472 26.108C14.289 26.0925 14.105 26.0925 13.922 26.108C13.1805 26.1863 12.4877 26.5142 11.957 27.038C11.2696 26.6348 10.4719 26.4604 9.679 26.54C9.35601 26.577 9.0393 26.6564 8.737 26.776C8.734 26.729 8.741 26.683 8.737 26.637C8.68664 26.1418 8.5392 25.6613 8.30312 25.223C8.06705 24.7848 7.74694 24.3973 7.3611 24.0828C6.97526 23.7683 6.53124 23.5328 6.05439 23.39C5.57755 23.2471 5.07723 23.1995 4.582 23.25C4.03901 23.3069 3.51488 23.4812 3.04591 23.7607C2.57694 24.0403 2.17434 24.4184 1.866 24.869C1.26357 24.6785 0.628919 24.6115 0 24.672L0 32C0 32.773 0.23 33.489 0.61 34.101C0.715 34.098 29 31.209 29 29C29 26.791 27.209 25 25 25Z" fill="#F5F8FA"/>
<path d="M32 36C33.0609 36 34.0783 35.5786 34.8284 34.8284C35.5786 34.0783 36 33.0609 36 32V24.392C35.0635 23.9434 34.0384 23.7101 33 23.709C31.6115 23.709 30.2545 24.1221 29.1014 24.8957C27.9484 25.6692 27.0516 26.7683 26.525 28.053C26.35 28.034 26.18 28 26 28C25.298 28 24.631 28.147 24.024 28.409C23.6522 27.969 23.1892 27.6151 22.667 27.3718C22.1449 27.1285 21.5761 27.0016 21 27C19.9391 27 18.9217 27.4214 18.1716 28.1716C17.4214 28.9217 17 29.9391 17 31C17 31.05 17.013 31.097 17.015 31.146C16.6844 31.0535 16.3432 31.0044 16 31C15.124 31 14.321 31.289 13.662 31.767C13.0492 31.2735 12.2868 31.003 11.5 31C11.3063 31.0028 11.1133 31.0226 10.923 31.059C10.286 29.279 8.602 28 6.604 28C4.617 28 2.939 29.266 2.294 31.03C2.195 31.022 2.101 31 2 31C1.268 31 0.59 31.211 0 31.555V32C0 33.0609 0.421427 34.0783 1.17157 34.8284C1.92172 35.5786 2.93913 36 4 36H32Z" fill="#CCD6DD"/>
<path d="M30.625 16.7083H29.3663L30.3954 15.6871C30.4692 15.6133 30.5278 15.5256 30.5677 15.4292C30.6077 15.3327 30.6282 15.2294 30.6282 15.125C30.6282 15.0206 30.6077 14.9172 30.5677 14.8208C30.5278 14.7244 30.4692 14.6367 30.3954 14.5629C30.3216 14.4891 30.234 14.4305 30.1375 14.3906C30.0411 14.3506 29.9377 14.3301 29.8333 14.3301C29.729 14.3301 29.6256 14.3506 29.5291 14.3906C29.4327 14.4305 29.3451 14.4891 29.2713 14.5629L27.1338 16.7083H25.4079L27.2288 14.8954C27.3026 14.8216 27.3611 14.734 27.4011 14.6375C27.441 14.5411 27.4616 14.4377 27.4616 14.3333C27.4616 14.2289 27.441 14.1256 27.4011 14.0291C27.3611 13.9327 27.3026 13.8451 27.2288 13.7712C27.1549 13.6974 27.0673 13.6389 26.9709 13.5989C26.8744 13.559 26.7711 13.5384 26.6667 13.5384C26.5623 13.5384 26.4589 13.559 26.3625 13.5989C26.266 13.6389 26.1784 13.6974 26.1046 13.7712L24.2917 15.5921V13.8662L26.4371 11.7287C26.5109 11.6549 26.5695 11.5673 26.6094 11.4709C26.6494 11.3744 26.6699 11.2711 26.6699 11.1667C26.6699 11.0623 26.6494 10.9589 26.6094 10.8625C26.5695 10.766 26.5109 10.6784 26.4371 10.6046C26.3633 10.5308 26.2756 10.4722 26.1792 10.4323C26.0828 10.3923 25.9794 10.3718 25.875 10.3718C25.6642 10.3718 25.462 10.4555 25.3129 10.6046L24.2917 11.6337V10.375C24.2917 10.165 24.2083 9.96367 24.0598 9.8152C23.9113 9.66674 23.71 9.58333 23.5 9.58333C23.29 9.58333 23.0887 9.66674 22.9402 9.8152C22.7918 9.96367 22.7083 10.165 22.7083 10.375V11.6337L21.6871 10.6046C21.6133 10.5308 21.5256 10.4722 21.4292 10.4323C21.3328 10.3923 21.2294 10.3718 21.125 10.3718C21.0206 10.3718 20.9173 10.3923 20.8208 10.4323C20.7244 10.4722 20.6367 10.5308 20.5629 10.6046C20.4139 10.7537 20.3301 10.9558 20.3301 11.1667C20.3301 11.3775 20.4139 11.5797 20.5629 11.7287L22.7083 13.8662V15.5921L20.8954 13.7712C20.8216 13.6974 20.734 13.6389 20.6375 13.5989C20.5411 13.559 20.4377 13.5384 20.3333 13.5384C20.229 13.5384 20.1256 13.559 20.0291 13.5989C19.9327 13.6389 19.8451 13.6974 19.7713 13.7712C19.6974 13.8451 19.6389 13.9327 19.5989 14.0291C19.559 14.1256 19.5384 14.2289 19.5384 14.3333C19.5384 14.4377 19.559 14.5411 19.5989 14.6375C19.6389 14.734 19.6974 14.8216 19.7713 14.8954L21.5921 16.7083H19.8663L17.7288 14.5629C17.5797 14.4138 17.3775 14.3301 17.1667 14.3301C16.9559 14.3301 16.7537 14.4138 16.6046 14.5629C16.4555 14.712 16.3718 14.9142 16.3718 15.125C16.3718 15.3358 16.4555 15.538 16.6046 15.6871L17.6338 16.7083H16.375C16.165 16.7083 15.9637 16.7917 15.8152 16.9402C15.6668 17.0887 15.5833 17.29 15.5833 17.5C15.5833 17.71 15.6668 17.9113 15.8152 18.0598C15.9637 18.2083 16.165 18.2917 16.375 18.2917H17.6338L16.6046 19.3129C16.5304 19.3865 16.4715 19.4741 16.4313 19.5705C16.3911 19.667 16.3704 19.7705 16.3704 19.875C16.3704 19.9795 16.3911 20.083 16.4313 20.1795C16.4715 20.2759 16.5304 20.3635 16.6046 20.4371C16.6782 20.5113 16.7657 20.5702 16.8622 20.6104C16.9587 20.6506 17.0622 20.6713 17.1667 20.6713C17.2712 20.6713 17.3747 20.6506 17.4711 20.6104C17.5676 20.5702 17.6552 20.5113 17.7288 20.4371L19.8663 18.2917H21.5921L19.7713 20.1046C19.6971 20.1782 19.6382 20.2657 19.598 20.3622C19.5578 20.4587 19.5371 20.5622 19.5371 20.6667C19.5371 20.7712 19.5578 20.8746 19.598 20.9711C19.6382 21.0676 19.6971 21.1551 19.7713 21.2287C19.8449 21.3029 19.9324 21.3618 20.0289 21.402C20.1254 21.4422 20.2288 21.4629 20.3333 21.4629C20.4379 21.4629 20.5413 21.4422 20.6378 21.402C20.7343 21.3618 20.8218 21.3029 20.8954 21.2287L22.7083 19.4079V21.1337L20.5629 23.2712C20.4139 23.4203 20.3301 23.6225 20.3301 23.8333C20.3301 24.0441 20.4139 24.2463 20.5629 24.3954C20.712 24.5445 20.9142 24.6282 21.125 24.6282C21.3358 24.6282 21.538 24.5445 21.6871 24.3954L22.7083 23.3662V24.625C22.7083 24.835 22.7918 25.0363 22.9402 25.1848C23.0887 25.3333 23.29 25.4167 23.5 25.4167C23.71 25.4167 23.9113 25.3333 24.0598 25.1848C24.2083 25.0363 24.2917 24.835 24.2917 24.625V23.3662L25.3129 24.3954C25.3865 24.4696 25.4741 24.5285 25.5706 24.5687C25.667 24.6089 25.7705 24.6296 25.875 24.6296C25.9795 24.6296 26.083 24.6089 26.1795 24.5687C26.2759 24.5285 26.3635 24.4696 26.4371 24.3954C26.5113 24.3218 26.5702 24.2343 26.6104 24.1378C26.6506 24.0413 26.6713 23.9378 26.6713 23.8333C26.6713 23.7288 26.6506 23.6253 26.6104 23.5289C26.5702 23.4324 26.5113 23.3448 26.4371 23.2712L24.2917 21.1337V19.4079L26.1046 21.2287C26.1782 21.3029 26.2657 21.3618 26.3622 21.402C26.4587 21.4422 26.5622 21.4629 26.6667 21.4629C26.7712 21.4629 26.8747 21.4422 26.9711 21.402C27.0676 21.3618 27.1552 21.3029 27.2288 21.2287C27.303 21.1551 27.3619 21.0676 27.402 20.9711C27.4422 20.8746 27.4629 20.7712 27.4629 20.6667C27.4629 20.5622 27.4422 20.4587 27.402 20.3622C27.3619 20.2657 27.303 20.1782 27.2288 20.1046L25.4079 18.2917H27.1338L29.2713 20.4371C29.3449 20.5113 29.4324 20.5702 29.5289 20.6104C29.6254 20.6506 29.7288 20.6713 29.8333 20.6713C29.9379 20.6713 30.0413 20.6506 30.1378 20.6104C30.2343 20.5702 30.3218 20.5113 30.3954 20.4371C30.4696 20.3635 30.5285 20.2759 30.5687 20.1795C30.6089 20.083 30.6296 19.9795 30.6296 19.875C30.6296 19.7705 30.6089 19.667 30.5687 19.5705C30.5285 19.4741 30.4696 19.3865 30.3954 19.3129L29.3663 18.2917H30.625C30.835 18.2917 31.0363 18.2083 31.1848 18.0598C31.3333 17.9113 31.4167 17.71 31.4167 17.5C31.4167 17.29 31.3333 17.0887 31.1848 16.9402C31.0363 16.7917 30.835 16.7083 30.625 16.7083Z" fill="#A5D1F5"/>
<path d="M24 21H22.41L23.71 19.71C23.8032 19.6168 23.8772 19.5061 23.9277 19.3842C23.9781 19.2624 24.0041 19.1319 24.0041 19C24.0041 18.8681 23.9781 18.7376 23.9277 18.6158C23.8772 18.4939 23.8032 18.3832 23.71 18.29C23.6168 18.1968 23.5061 18.1228 23.3842 18.0723C23.2624 18.0219 23.1319 17.9959 23 17.9959C22.8681 17.9959 22.7376 18.0219 22.6158 18.0723C22.4939 18.1228 22.3832 18.1968 22.29 18.29L19.59 21H17.41L19.71 18.71C19.8032 18.6168 19.8772 18.5061 19.9277 18.3842C19.9781 18.2624 20.0041 18.1319 20.0041 18C20.0041 17.8681 19.9781 17.7376 19.9277 17.6158C19.8772 17.4939 19.8032 17.3832 19.71 17.29C19.6168 17.1968 19.5061 17.1228 19.3842 17.0723C19.2624 17.0219 19.1319 16.9959 19 16.9959C18.8681 16.9959 18.7376 17.0219 18.6158 17.0723C18.4939 17.1228 18.3832 17.1968 18.29 17.29L16 19.59V17.41L18.71 14.71C18.8032 14.6168 18.8772 14.5061 18.9277 14.3842C18.9781 14.2624 19.0041 14.1319 19.0041 14C19.0041 13.8681 18.9781 13.7376 18.9277 13.6158C18.8772 13.4939 18.8032 13.3832 18.71 13.29C18.6168 13.1968 18.5061 13.1228 18.3842 13.0723C18.2624 13.0219 18.1319 12.9959 18 12.9959C17.7337 12.9959 17.4783 13.1017 17.29 13.29L16 14.59V13C16 12.7348 15.8946 12.4804 15.7071 12.2929C15.5196 12.1054 15.2652 12 15 12C14.7348 12 14.4804 12.1054 14.2929 12.2929C14.1054 12.4804 14 12.7348 14 13V14.59L12.71 13.29C12.6168 13.1968 12.5061 13.1228 12.3842 13.0723C12.2624 13.0219 12.1319 12.9959 12 12.9959C11.8681 12.9959 11.7376 13.0219 11.6158 13.0723C11.4939 13.1228 11.3832 13.1968 11.29 13.29C11.1017 13.4783 10.9959 13.7337 10.9959 14C10.9959 14.2663 11.1017 14.5217 11.29 14.71L14 17.41V19.59L11.71 17.29C11.6168 17.1968 11.5061 17.1228 11.3842 17.0723C11.2624 17.0219 11.1319 16.9959 11 16.9959C10.8681 16.9959 10.7376 17.0219 10.6158 17.0723C10.4939 17.1228 10.3832 17.1968 10.29 17.29C10.1968 17.3832 10.1228 17.4939 10.0723 17.6158C10.0219 17.7376 9.99591 17.8681 9.99591 18C9.99591 18.1319 10.0219 18.2624 10.0723 18.3842C10.1228 18.5061 10.1968 18.6168 10.29 18.71L12.59 21H10.41L7.71 18.29C7.5217 18.1017 7.2663 17.9959 7 17.9959C6.7337 17.9959 6.4783 18.1017 6.29 18.29C6.1017 18.4783 5.99591 18.7337 5.99591 19C5.99591 19.2663 6.1017 19.5217 6.29 19.71L7.59 21H6C5.73478 21 5.48043 21.1054 5.29289 21.2929C5.10536 21.4804 5 21.7348 5 22C5 22.2652 5.10536 22.5196 5.29289 22.7071C5.48043 22.8946 5.73478 23 6 23H7.59L6.29 24.29C6.19627 24.383 6.12188 24.4936 6.07111 24.6154C6.02034 24.7373 5.9942 24.868 5.9942 25C5.9942 25.132 6.02034 25.2627 6.07111 25.3846C6.12188 25.5064 6.19627 25.617 6.29 25.71C6.38296 25.8037 6.49356 25.8781 6.61542 25.9289C6.73728 25.9797 6.86799 26.0058 7 26.0058C7.13201 26.0058 7.26272 25.9797 7.38458 25.9289C7.50644 25.8781 7.61704 25.8037 7.71 25.71L10.41 23H12.59L10.29 25.29C10.1963 25.383 10.1219 25.4936 10.0711 25.6154C10.0203 25.7373 9.9942 25.868 9.9942 26C9.9942 26.132 10.0203 26.2627 10.0711 26.3846C10.1219 26.5064 10.1963 26.617 10.29 26.71C10.383 26.8037 10.4936 26.8781 10.6154 26.9289C10.7373 26.9797 10.868 27.0058 11 27.0058C11.132 27.0058 11.2627 26.9797 11.3846 26.9289C11.5064 26.8781 11.617 26.8037 11.71 26.71L14 24.41V26.59L11.29 29.29C11.1017 29.4783 10.9959 29.7337 10.9959 30C10.9959 30.2663 11.1017 30.5217 11.29 30.71C11.4783 30.8983 11.7337 31.0041 12 31.0041C12.2663 31.0041 12.5217 30.8983 12.71 30.71L14 29.41V31C14 31.2652 14.1054 31.5196 14.2929 31.7071C14.4804 31.8946 14.7348 32 15 32C15.2652 32 15.5196 31.8946 15.7071 31.7071C15.8946 31.5196 16 31.2652 16 31V29.41L17.29 30.71C17.383 30.8037 17.4936 30.8781 17.6154 30.9289C17.7373 30.9797 17.868 31.0058 18 31.0058C18.132 31.0058 18.2627 30.9797 18.3846 30.9289C18.5064 30.8781 18.617 30.8037 18.71 30.71C18.8037 30.617 18.8781 30.5064 18.9289 30.3846C18.9797 30.2627 19.0058 30.132 19.0058 30C19.0058 29.868 18.9797 29.7373 18.9289 29.6154C18.8781 29.4936 18.8037 29.383 18.71 29.29L16 26.59V24.41L18.29 26.71C18.383 26.8037 18.4936 26.8781 18.6154 26.9289C18.7373 26.9797 18.868 27.0058 19 27.0058C19.132 27.0058 19.2627 26.9797 19.3846 26.9289C19.5064 26.8781 19.617 26.8037 19.71 26.71C19.8037 26.617 19.8781 26.5064 19.9289 26.3846C19.9797 26.2627 20.0058 26.132 20.0058 26C20.0058 25.868 19.9797 25.7373 19.9289 25.6154C19.8781 25.4936 19.8037 25.383 19.71 25.29L17.41 23H19.59L22.29 25.71C22.383 25.8037 22.4936 25.8781 22.6154 25.9289C22.7373 25.9797 22.868 26.0058 23 26.0058C23.132 26.0058 23.2627 25.9797 23.3846 25.9289C23.5064 25.8781 23.617 25.8037 23.71 25.71C23.8037 25.617 23.8781 25.5064 23.9289 25.3846C23.9797 25.2627 24.0058 25.132 24.0058 25C24.0058 24.868 23.9797 24.7373 23.9289 24.6154C23.8781 24.4936 23.8037 24.383 23.71 24.29L22.41 23H24C24.2652 23 24.5196 22.8946 24.7071 22.7071C24.8946 22.5196 25 22.2652 25 22C25 21.7348 24.8946 21.4804 24.7071 21.2929C24.5196 21.1054 24.2652 21 24 21Z" fill="#5DADEC"/>
</g>
<defs>
<clipPath id="clip0_20_267">
<rect width="36" height="36" fill="white"/>
</clipPath>
</defs>
</svg>
