<svg width="36" height="36" viewBox="0 0 36 36" fill="none" xmlns="http://www.w3.org/2000/svg">
<g clip-path="url(#clip0_18_93)">
<path opacity="0.5" d="M32 0H4C2.93913 0 1.92172 0.421427 1.17157 1.17157C0.421427 1.92172 0 2.93913 0 4L0 10H36V4C36 2.93913 35.5786 1.92172 34.8284 1.17157C34.0783 0.421427 33.0609 0 32 0Z" fill="#F5F8FA"/>
<path opacity="0.5" d="M36 16.368V9.257C35.3439 8.84632 34.586 8.6274 33.812 8.625C32.487 8.625 31.321 9.252 30.553 10.213C29.7264 9.43547 28.6348 9.00176 27.5 9C26.779 9 26.108 9.185 25.504 9.486C24.763 8.018 23.257 7 21.5 7C20.893 7 20.316 7.124 19.788 7.342C19.5745 6.73056 19.1951 6.19059 18.6922 5.7825C18.1893 5.37441 17.5828 5.1143 16.9405 5.03128C16.2982 4.94826 15.6455 5.04559 15.0553 5.3124C14.4652 5.5792 13.961 6.00495 13.599 6.542C12.9548 6.19079 12.2337 6.00458 11.5 6C9.859 6 8.438 6.887 7.652 8.198C7.29014 7.25758 6.65205 6.44875 5.8217 5.87792C4.99135 5.3071 4.00763 5.00104 3 5C1.91508 5.00305 0.861147 5.36209 0 6.022L0 13.977C0.838 14.611 24.5 18 24.5 18C24.5 18 35.362 16.762 36 16.368Z" fill="#E1E8ED"/>
<path opacity="0.5" d="M36 14.771C35.157 13.7 33.864 13 32.396 13C30.399 13 28.715 14.279 28.078 16.059C27.8874 16.0226 27.694 16.0029 27.5 16C26.68 16 25.935 16.294 25.338 16.767C24.6598 16.2698 23.841 16.0012 23 16C22.647 16 22.311 16.06 21.985 16.146C21.987 16.097 22 16.05 22 16C22 14.9391 21.5786 13.9217 20.8284 13.1716C20.0783 12.4214 19.0609 12 18 12C17.4239 12.0016 16.8551 12.1285 16.333 12.3718C15.8108 12.6151 15.3478 12.969 14.976 13.409C14.3521 13.1395 13.6796 13.0003 13 13C12.82 13 12.65 13.034 12.475 13.053C11.9484 11.7683 11.0516 10.6692 9.89855 9.89566C8.74553 9.12211 7.38846 8.70904 6 8.709C4.7905 8.70932 3.60178 9.02353 2.55008 9.62089C1.49839 10.2183 0.619722 11.0783 0 12.117L0 25.661L32.396 24.209C32.396 24.209 35.157 22.866 36 21.243V14.771Z" fill="#CCD6DD"/>
<path opacity="0.5" d="M36 30.499V20.422C35.3697 20.1445 34.6887 20.0008 34 20C32.9924 20.001 32.0087 20.3071 31.1783 20.8779C30.348 21.4487 29.7099 22.2576 29.348 23.198C28.562 21.887 27.141 21 25.5 21C24.737 21 24.03 21.207 23.401 21.542C23.0391 21.0049 22.5348 20.5792 21.9447 20.3124C21.3546 20.0456 20.7018 19.9483 20.0595 20.0313C19.4172 20.1143 18.8107 20.3744 18.3078 20.7825C17.8049 21.1906 17.4255 21.7306 17.212 22.342C16.6694 22.1167 16.0876 22.0005 15.5 22C13.743 22 12.237 23.018 11.496 24.486C10.8777 24.1706 10.1941 24.0042 9.50002 24C8.36494 24.0019 7.27309 24.4356 6.44602 25.213C5.67802 24.252 4.51202 23.625 3.18702 23.625C1.90302 23.625 0.768023 24.216 -0.000976562 25.126V30.499H36Z" fill="#E1E8ED"/>
<path d="M25 25C24.179 25 23.418 25.249 22.783 25.673C22.455 24.7584 21.8305 23.9797 21.0089 23.4609C20.1873 22.9421 19.2158 22.713 18.249 22.81C17.356 22.9026 16.5136 23.2694 15.8374 23.8599C15.1611 24.4504 14.6842 25.2357 14.472 26.108C14.289 26.0925 14.105 26.0925 13.922 26.108C13.1805 26.1863 12.4877 26.5142 11.957 27.038C11.2696 26.6348 10.4719 26.4604 9.679 26.54C9.35601 26.577 9.0393 26.6564 8.737 26.776C8.734 26.729 8.741 26.683 8.737 26.637C8.68664 26.1418 8.5392 25.6613 8.30312 25.223C8.06705 24.7848 7.74694 24.3973 7.3611 24.0828C6.97526 23.7683 6.53124 23.5329 6.05439 23.39C5.57755 23.2471 5.07723 23.1995 4.582 23.25C4.03901 23.3069 3.51488 23.4812 3.04591 23.7607C2.57694 24.0403 2.17434 24.4184 1.866 24.869C1.26357 24.6786 0.628919 24.6116 0 24.672L0 32C0 32.773 0.23 33.489 0.61 34.101C0.715 34.098 29 31.209 29 29C29 26.791 27.209 25 25 25Z" fill="#F5F8FA"/>
<path opacity="0.5" d="M32 36C33.0609 36 34.0783 35.5786 34.8284 34.8284C35.5786 34.0783 36 33.0609 36 32V24.392C35.0635 23.9434 34.0384 23.7101 33 23.709C31.6115 23.709 30.2545 24.1221 29.1014 24.8957C27.9484 25.6692 27.0516 26.7683 26.525 28.053C26.35 28.034 26.18 28 26 28C25.298 28 24.631 28.147 24.024 28.409C23.6522 27.969 23.1892 27.6151 22.667 27.3718C22.1449 27.1285 21.5761 27.0016 21 27C19.9391 27 18.9217 27.4214 18.1716 28.1716C17.4214 28.9217 17 29.9391 17 31C17 31.05 17.013 31.097 17.015 31.146C16.6844 31.0535 16.3432 31.0044 16 31C15.124 31 14.321 31.289 13.662 31.767C13.0492 31.2735 12.2868 31.003 11.5 31C11.3063 31.0028 11.1133 31.0226 10.923 31.059C10.286 29.279 8.602 28 6.604 28C4.617 28 2.939 29.266 2.294 31.03C2.195 31.022 2.101 31 2 31C1.268 31 0.59 31.211 0 31.555V32C0 33.0609 0.421427 34.0783 1.17157 34.8284C1.92172 35.5786 2.93913 36 4 36H32Z" fill="#CCD6DD"/>
<path d="M27.3333 8.4C26.6458 8.4 25.9833 8.50625 25.3592 8.70345C24.9892 7.62198 24.2987 6.6846 23.3833 6.02108C22.4679 5.35756 21.373 5.00073 20.25 5C17.7133 5 15.59 6.7816 15.0008 9.18285C14.3549 8.67745 13.5641 8.40241 12.75 8.4C11.7554 8.4 10.8016 8.80299 10.0983 9.52032C9.39509 10.2376 9 11.2105 9 12.225C9 12.7384 9.1025 13.2263 9.2825 13.6734C8.92003 13.564 8.54462 13.5057 8.16667 13.5C5.865 13.5 4 15.4023 4 17.75C4 20.0977 5.865 22 8.16667 22H27.3333C29.1014 22 30.7971 21.2836 32.0474 20.0083C33.2976 18.7331 34 17.0035 34 15.2C34 13.3965 33.2976 11.6669 32.0474 10.3917C30.7971 9.11643 29.1014 8.4 27.3333 8.4Z" fill="#CCCCCC"/>
<path d="M10.3042 27.8333C10.2576 27.7568 10.1809 27.7009 10.091 27.678C10.001 27.6552 9.9052 27.6671 9.82456 27.7113L8.52757 28.4227V27C8.52757 26.9116 8.49058 26.8268 8.42473 26.7643C8.35889 26.7018 8.26958 26.6667 8.17646 26.6667C8.08334 26.6667 7.99404 26.7018 7.92819 26.7643C7.86234 26.8268 7.82535 26.9116 7.82535 27V28.4233L6.52696 27.712C6.44622 27.6678 6.3503 27.6559 6.26029 27.6788C6.17028 27.7017 6.09355 27.7577 6.04699 27.8343C6.00043 27.911 5.98785 28.002 6.01202 28.0875C6.03618 28.173 6.09512 28.2458 6.17585 28.29L7.47354 29L6.17585 29.7113C6.13588 29.7332 6.10083 29.7624 6.07272 29.7971C6.04461 29.8319 6.02398 29.8715 6.01202 29.9138C6.00005 29.9561 5.99698 30.0003 6.00298 30.0437C6.00899 30.0872 6.02394 30.129 6.04699 30.167C6.07005 30.205 6.10075 30.2382 6.13735 30.2649C6.17395 30.2916 6.21572 30.3112 6.26029 30.3225C6.30486 30.3339 6.35135 30.3368 6.3971 30.3311C6.44286 30.3254 6.48698 30.3112 6.52696 30.2893L7.82535 29.5773V31C7.82535 31.0884 7.86234 31.1732 7.92819 31.2357C7.99404 31.2982 8.08334 31.3333 8.17646 31.3333C8.26958 31.3333 8.35889 31.2982 8.42473 31.2357C8.49058 31.1732 8.52757 31.0884 8.52757 31V29.578L9.82526 30.2893C9.86524 30.3112 9.90936 30.3254 9.95512 30.3311C10.0009 30.3368 10.0474 30.3339 10.0919 30.3225C10.1365 30.3112 10.1783 30.2916 10.2149 30.2649C10.2515 30.2382 10.2822 30.205 10.3052 30.167C10.3283 30.129 10.3432 30.0872 10.3492 30.0437C10.3552 30.0003 10.3522 29.9561 10.3402 29.9138C10.3282 29.8715 10.3076 29.8319 10.2795 29.7971C10.2514 29.7624 10.2163 29.7332 10.1764 29.7113L8.87868 29L10.1764 28.2887C10.2163 28.2668 10.2513 28.2376 10.2794 28.2029C10.3074 28.1681 10.328 28.1285 10.3398 28.0862C10.3517 28.0439 10.3547 27.9998 10.3485 27.9564C10.3424 27.913 10.3273 27.8712 10.3042 27.8333ZM17.3263 30.5C17.2798 30.4234 17.2031 30.3676 17.1131 30.3447C17.0232 30.3218 16.9273 30.3338 16.8467 30.378L15.5497 31.0893V29.6667C15.5497 29.5783 15.5127 29.4935 15.4469 29.431C15.381 29.3685 15.2917 29.3333 15.1986 29.3333C15.1055 29.3333 15.0162 29.3685 14.9503 29.431C14.8845 29.4935 14.8475 29.5783 14.8475 29.6667V31.09L13.5491 30.3787C13.4684 30.3345 13.3724 30.3225 13.2824 30.3455C13.1924 30.3684 13.1157 30.4244 13.0691 30.501C13.0226 30.5776 13.01 30.6687 13.0342 30.7542C13.0583 30.8396 13.1173 30.9125 13.198 30.9567L14.4957 31.668L13.198 32.3793C13.158 32.4012 13.123 32.4304 13.0949 32.4651C13.0668 32.4999 13.0461 32.5395 13.0342 32.5818C13.01 32.6673 13.0226 32.7584 13.0691 32.835C13.1157 32.9116 13.1924 32.9676 13.2824 32.9905C13.3724 33.0135 13.4684 33.0015 13.5491 32.9573L14.8475 32.244V33.6667C14.8475 33.7551 14.8845 33.8399 14.9503 33.9024C15.0162 33.9649 15.1055 34 15.1986 34C15.2917 34 15.381 33.9649 15.4469 33.9024C15.5127 33.8399 15.5497 33.7551 15.5497 33.6667V32.2447L16.8474 32.956C16.8874 32.9779 16.9315 32.9921 16.9773 32.9978C17.023 33.0035 17.0695 33.0006 17.1141 32.9892C17.1586 32.9778 17.2004 32.9583 17.237 32.9316C17.2736 32.9049 17.3043 32.8716 17.3274 32.8337C17.3504 32.7957 17.3654 32.7538 17.3714 32.7104C17.3774 32.6669 17.3743 32.6228 17.3623 32.5805C17.3504 32.5382 17.3298 32.4985 17.3016 32.4638C17.2735 32.429 17.2385 32.3999 17.1985 32.378L15.9008 31.6667L17.1985 30.9553C17.2385 30.9335 17.2735 30.9043 17.3015 30.8696C17.3296 30.8348 17.3501 30.7952 17.362 30.7529C17.3738 30.7106 17.3768 30.6664 17.3707 30.6231C17.3646 30.5797 17.3495 30.5378 17.3263 30.5ZM13.4431 28.3333C13.4431 28.4217 13.4801 28.5065 13.5459 28.569C13.6118 28.6315 13.7011 28.6667 13.7942 28.6667C13.8873 28.6667 13.9766 28.6315 14.0424 28.569C14.1083 28.5065 14.1453 28.4217 14.1453 28.3333V26.9113L15.443 27.6227C15.483 27.6446 15.5271 27.6588 15.5728 27.6644C15.6186 27.6701 15.6651 27.6672 15.7096 27.6559C15.7542 27.6445 15.796 27.6249 15.8326 27.5982C15.8692 27.5716 15.8999 27.5383 15.9229 27.5003C15.946 27.4624 15.961 27.4205 15.967 27.3771C15.973 27.3336 15.9699 27.2895 15.9579 27.2472C15.946 27.2049 15.9253 27.1652 15.8972 27.1304C15.8691 27.0957 15.8341 27.0666 15.7941 27.0447L14.4964 26.3333L15.7941 25.622C15.8701 25.5756 15.9244 25.5032 15.9458 25.4198C15.9671 25.3365 15.9538 25.2485 15.9087 25.1742C15.8635 25.0998 15.79 25.0448 15.7033 25.0206C15.6166 24.9964 15.5234 25.0048 15.443 25.044L14.1453 25.756V24.3333C14.1453 24.2449 14.1083 24.1601 14.0424 24.0976C13.9766 24.0351 13.8873 24 13.7942 24C13.7011 24 13.6118 24.0351 13.5459 24.0976C13.4801 24.1601 13.4431 24.2449 13.4431 24.3333V25.7567L12.1447 25.0453C12.0639 25.0011 11.968 24.9892 11.878 25.0121C11.788 25.0351 11.7113 25.091 11.6647 25.1677C11.6182 25.2443 11.6056 25.3354 11.6297 25.4208C11.6539 25.5063 11.7128 25.5791 11.7936 25.6233L13.0913 26.3347L11.7936 27.046C11.7128 27.0902 11.6539 27.163 11.6297 27.2485C11.6056 27.334 11.6182 27.425 11.6647 27.5017C11.7113 27.5783 11.788 27.6343 11.878 27.6572C11.968 27.6801 12.0639 27.6682 12.1447 27.624L13.4431 26.9107V28.3333ZM22.4651 28.2893C22.5051 28.3112 22.5492 28.3254 22.595 28.3311C22.6407 28.3368 22.6872 28.3339 22.7318 28.3225C22.7764 28.3112 22.8181 28.2916 22.8547 28.2649C22.8913 28.2382 22.922 28.205 22.9451 28.167C22.9681 28.129 22.9831 28.0872 22.9891 28.0437C22.9951 28.0003 22.992 27.9561 22.9801 27.9138C22.9681 27.8715 22.9475 27.8319 22.9194 27.7971C22.8913 27.7624 22.8562 27.7332 22.8162 27.7113L21.5185 27L22.8162 26.2887C22.8923 26.2423 22.9466 26.1699 22.9679 26.0865C22.9892 26.0031 22.976 25.9152 22.9308 25.8408C22.8857 25.7665 22.8121 25.7115 22.7254 25.6873C22.6387 25.663 22.5455 25.6714 22.4651 25.7107L21.1674 26.4227V25C21.1674 24.9116 21.1304 24.8268 21.0646 24.7643C20.9987 24.7018 20.9094 24.6667 20.8163 24.6667C20.7232 24.6667 20.6339 24.7018 20.5681 24.7643C20.5022 24.8268 20.4652 24.9116 20.4652 25V26.4233L19.1668 25.712C19.1268 25.6901 19.0827 25.6759 19.037 25.6702C18.9912 25.6645 18.9447 25.6674 18.9002 25.6788C18.8556 25.6902 18.8138 25.7097 18.7772 25.7364C18.7406 25.7631 18.7099 25.7964 18.6869 25.8343C18.6638 25.8723 18.6488 25.9142 18.6428 25.9576C18.6368 26.0011 18.6399 26.0452 18.6519 26.0875C18.6638 26.1298 18.6845 26.1695 18.7126 26.2042C18.7407 26.239 18.7757 26.2681 18.8157 26.29L20.1134 27.0013L18.8157 27.7127C18.735 27.7569 18.676 27.8297 18.6519 27.9152C18.6277 28.0006 18.6403 28.0917 18.6869 28.1683C18.7334 28.245 18.8101 28.3009 18.9002 28.3239C18.9902 28.3468 19.0861 28.3349 19.1668 28.2907L20.4652 27.5773V29C20.4652 29.0884 20.5022 29.1732 20.5681 29.2357C20.6339 29.2982 20.7232 29.3333 20.8163 29.3333C20.9094 29.3333 20.9987 29.2982 21.0646 29.2357C21.1304 29.1732 21.1674 29.0884 21.1674 29V27.578L22.4651 28.2893ZM29.8384 27.0447L28.5407 26.3333L29.8384 25.622C29.9144 25.5756 29.9687 25.5032 29.9901 25.4198C30.0114 25.3365 29.9981 25.2485 29.953 25.1742C29.9078 25.0998 29.8342 25.0448 29.7475 25.0206C29.6608 24.9964 29.5676 25.0048 29.4873 25.044L28.1896 25.756V24.3333C28.1896 24.2449 28.1526 24.1601 28.0867 24.0976C28.0209 24.0351 27.9316 24 27.8385 24C27.7454 24 27.656 24.0351 27.5902 24.0976C27.5244 24.1601 27.4874 24.2449 27.4874 24.3333V25.7567L26.189 25.0453C26.1082 25.0011 26.0123 24.9892 25.9223 25.0121C25.8323 25.0351 25.7556 25.091 25.709 25.1677C25.6624 25.2443 25.6499 25.3354 25.674 25.4208C25.6982 25.5063 25.7571 25.5791 25.8379 25.6233L27.1356 26.3347L25.8379 27.046C25.7571 27.0902 25.6982 27.163 25.674 27.2485C25.6499 27.334 25.6624 27.425 25.709 27.5017C25.7556 27.5783 25.8323 27.6343 25.9223 27.6572C26.0123 27.6801 26.1082 27.6682 26.189 27.624L27.4874 26.9107V28.3333C27.4874 28.4217 27.5244 28.5065 27.5902 28.569C27.656 28.6315 27.7454 28.6667 27.8385 28.6667C27.9316 28.6667 28.0209 28.6315 28.0867 28.569C28.1526 28.5065 28.1896 28.4217 28.1896 28.3333V26.9113L29.4873 27.6227C29.5676 27.6619 29.6608 27.6703 29.7475 27.6461C29.8342 27.6218 29.9078 27.5668 29.953 27.4925C29.9981 27.4182 30.0114 27.3302 29.9901 27.2468C29.9687 27.1634 29.9144 27.0911 29.8384 27.0447ZM26.4551 30.5C26.4085 30.4234 26.3319 30.3676 26.2419 30.3447C26.152 30.3218 26.0561 30.3338 25.9755 30.378L24.6785 31.0893V29.6667C24.6785 29.5783 24.6415 29.4935 24.5757 29.431C24.5098 29.3685 24.4205 29.3333 24.3274 29.3333C24.2343 29.3333 24.145 29.3685 24.0791 29.431C24.0133 29.4935 23.9763 29.5783 23.9763 29.6667V31.09L22.6779 30.3787C22.5972 30.3345 22.5012 30.3225 22.4112 30.3455C22.3212 30.3684 22.2445 30.4244 22.1979 30.501C22.1514 30.5776 22.1388 30.6687 22.163 30.7542C22.1871 30.8396 22.2461 30.9125 22.3268 30.9567L23.6245 31.668L22.3268 32.3793C22.2868 32.4012 22.2518 32.4304 22.2237 32.4651C22.1955 32.4999 22.1749 32.5395 22.163 32.5818C22.1388 32.6673 22.1514 32.7584 22.1979 32.835C22.2445 32.9116 22.3212 32.9676 22.4112 32.9905C22.5012 33.0135 22.5972 33.0015 22.6779 32.9573L23.9763 32.244V33.6667C23.9763 33.7551 24.0133 33.8399 24.0791 33.9024C24.145 33.9649 24.2343 34 24.3274 34C24.4205 34 24.5098 33.9649 24.5757 33.9024C24.6415 33.8399 24.6785 33.7551 24.6785 33.6667V32.2447L25.9762 32.956C26.0162 32.9779 26.0603 32.9921 26.1061 32.9978C26.1518 33.0035 26.1983 33.0006 26.2429 32.9892C26.2874 32.9778 26.3292 32.9583 26.3658 32.9316C26.4024 32.9049 26.4331 32.8716 26.4562 32.8337C26.4792 32.7957 26.4942 32.7538 26.5002 32.7104C26.5062 32.6669 26.5031 32.6228 26.4911 32.5805C26.4792 32.5382 26.4585 32.4985 26.4304 32.4638C26.4023 32.429 26.3673 32.3999 26.3273 32.378L25.0296 31.6667L26.3273 30.9553C26.3672 30.9335 26.4022 30.9043 26.4303 30.8696C26.4583 30.8348 26.4789 30.7952 26.4908 30.7529C26.5026 30.7106 26.5056 30.6664 26.4995 30.6231C26.4934 30.5797 26.4783 30.5378 26.4551 30.5Z" fill="#5DADEC"/>
</g>
<defs>
<clipPath id="clip0_18_93">
<rect width="36" height="36" fill="white"/>
</clipPath>
</defs>
</svg>
