<svg width="36" height="36" viewBox="0 0 36 36" fill="none" xmlns="http://www.w3.org/2000/svg">
<g clip-path="url(#clip0_18_29)">
<path d="M32 0H4C2.93913 0 1.92172 0.421427 1.17157 1.17157C0.421427 1.92172 0 2.93913 0 4L0 10H36V4C36 2.93913 35.5786 1.92172 34.8284 1.17157C34.0783 0.421427 33.0609 0 32 0Z" fill="#F5F8FA"/>
<path d="M36 16.368V9.257C35.3439 8.84632 34.586 8.6274 33.812 8.625C32.487 8.625 31.321 9.252 30.553 10.213C29.7264 9.43547 28.6348 9.00176 27.5 9C26.779 9 26.108 9.185 25.504 9.486C24.763 8.018 23.257 7 21.5 7C20.893 7 20.316 7.124 19.788 7.342C19.5745 6.73056 19.1951 6.19059 18.6922 5.7825C18.1893 5.37441 17.5828 5.1143 16.9405 5.03128C16.2982 4.94826 15.6455 5.04559 15.0553 5.3124C14.4652 5.5792 13.961 6.00495 13.599 6.542C12.9548 6.19079 12.2337 6.00458 11.5 6C9.859 6 8.438 6.887 7.652 8.198C7.29014 7.25758 6.65205 6.44875 5.8217 5.87792C4.99135 5.3071 4.00763 5.00104 3 5C1.91508 5.00305 0.861147 5.36209 0 6.022L0 13.977C0.838 14.611 24.5 18 24.5 18C24.5 18 35.362 16.762 36 16.368Z" fill="#E1E8ED"/>
<path d="M36 14.771C35.157 13.7 33.864 13 32.396 13C30.399 13 28.715 14.279 28.078 16.059C27.8874 16.0226 27.694 16.0029 27.5 16C26.68 16 25.935 16.294 25.338 16.767C24.6598 16.2698 23.841 16.0012 23 16C22.647 16 22.311 16.06 21.985 16.146C21.987 16.097 22 16.05 22 16C22 14.9391 21.5786 13.9217 20.8284 13.1716C20.0783 12.4214 19.0609 12 18 12C17.4239 12.0016 16.8551 12.1285 16.333 12.3718C15.8108 12.6151 15.3478 12.969 14.976 13.409C14.3521 13.1395 13.6796 13.0003 13 13C12.82 13 12.65 13.034 12.475 13.053C11.9484 11.7683 11.0516 10.6692 9.89855 9.89566C8.74553 9.12211 7.38846 8.70904 6 8.709C4.7905 8.70932 3.60178 9.02353 2.55008 9.62089C1.49839 10.2183 0.619722 11.0783 0 12.117L0 25.661L32.396 24.209C32.396 24.209 35.157 22.866 36 21.243V14.771Z" fill="#CCD6DD"/>
<path d="M36 30.499V20.422C35.3697 20.1445 34.6887 20.0008 34 20C32.9924 20.001 32.0086 20.3071 31.1783 20.8779C30.3479 21.4487 29.7099 22.2576 29.348 23.198C28.562 21.887 27.141 21 25.5 21C24.737 21 24.03 21.207 23.401 21.542C23.039 21.0049 22.5348 20.5792 21.9447 20.3124C21.3545 20.0456 20.7018 19.9483 20.0595 20.0313C19.4172 20.1143 18.8107 20.3744 18.3078 20.7825C17.8049 21.1906 17.4255 21.7306 17.212 22.342C16.6693 22.1167 16.0876 22.0005 15.5 22C13.743 22 12.237 23.018 11.496 24.486C10.8776 24.1706 10.1941 24.0042 9.49999 24C8.36491 24.0019 7.27306 24.4356 6.44599 25.213C5.67799 24.252 4.51199 23.625 3.18699 23.625C1.90299 23.625 0.767993 24.216 -0.00100708 25.126V30.499H36Z" fill="#E1E8ED"/>
<path d="M25 25C24.179 25 23.418 25.249 22.783 25.673C22.455 24.7584 21.8305 23.9797 21.0089 23.4609C20.1873 22.9421 19.2158 22.713 18.249 22.81C17.356 22.9026 16.5136 23.2694 15.8374 23.8599C15.1611 24.4504 14.6842 25.2357 14.472 26.108C14.289 26.0925 14.105 26.0925 13.922 26.108C13.1805 26.1863 12.4877 26.5142 11.957 27.038C11.2696 26.6348 10.4719 26.4604 9.679 26.54C9.35601 26.577 9.0393 26.6564 8.737 26.776C8.734 26.729 8.741 26.683 8.737 26.637C8.68664 26.1418 8.5392 25.6613 8.30312 25.223C8.06705 24.7848 7.74694 24.3973 7.3611 24.0828C6.97526 23.7683 6.53124 23.5328 6.05439 23.39C5.57755 23.2471 5.07723 23.1995 4.582 23.25C4.03901 23.3069 3.51488 23.4812 3.04591 23.7607C2.57694 24.0403 2.17434 24.4184 1.866 24.869C1.26357 24.6785 0.628919 24.6115 0 24.672L0 32C0 32.773 0.23 33.489 0.61 34.101C0.715 34.098 29 31.209 29 29C29 26.791 27.209 25 25 25Z" fill="#F5F8FA"/>
<path d="M32 36C33.0609 36 34.0783 35.5786 34.8284 34.8284C35.5786 34.0783 36 33.0609 36 32V24.392C35.0635 23.9434 34.0384 23.7101 33 23.709C31.6115 23.709 30.2545 24.1221 29.1014 24.8957C27.9484 25.6692 27.0516 26.7683 26.525 28.053C26.35 28.034 26.18 28 26 28C25.298 28 24.631 28.147 24.024 28.409C23.6522 27.969 23.1892 27.6151 22.667 27.3718C22.1449 27.1285 21.5761 27.0016 21 27C19.9391 27 18.9217 27.4214 18.1716 28.1716C17.4214 28.9217 17 29.9391 17 31C17 31.05 17.013 31.097 17.015 31.146C16.6844 31.0535 16.3432 31.0044 16 31C15.124 31 14.321 31.289 13.662 31.767C13.0492 31.2735 12.2868 31.003 11.5 31C11.3063 31.0028 11.1133 31.0226 10.923 31.059C10.286 29.279 8.602 28 6.604 28C4.617 28 2.939 29.266 2.294 31.03C2.195 31.022 2.101 31 2 31C1.268 31 0.59 31.211 0 31.555V32C0 33.0609 0.421427 34.0783 1.17157 34.8284C1.92172 35.5786 2.93913 36 4 36H32Z" fill="#CCD6DD"/>
</g>
<defs>
<clipPath id="clip0_18_29">
<rect width="36" height="36" fill="white"/>
</clipPath>
</defs>
</svg>
