<svg width="36" height="36" viewBox="0 0 36 36" fill="none" xmlns="http://www.w3.org/2000/svg">
<path d="M28.625 8.70833H27.3662L28.3954 7.68708C28.4692 7.61327 28.5278 7.52564 28.5677 7.4292C28.6077 7.33276 28.6282 7.22939 28.6282 7.125C28.6282 7.02061 28.6077 6.91725 28.5677 6.8208C28.5278 6.72436 28.4692 6.63673 28.3954 6.56292C28.3216 6.4891 28.234 6.43055 28.1375 6.3906C28.0411 6.35066 27.9377 6.33009 27.8333 6.33009C27.7289 6.33009 27.6256 6.35066 27.5291 6.3906C27.4327 6.43055 27.345 6.4891 27.2712 6.56292L25.1337 8.70833H23.4079L25.2287 6.89542C25.3025 6.8216 25.3611 6.73397 25.401 6.63753C25.441 6.54109 25.4616 6.43772 25.4616 6.33333C25.4616 6.22895 25.441 6.12558 25.401 6.02914C25.3611 5.93269 25.3025 5.84506 25.2287 5.77125C25.1549 5.69744 25.0673 5.63888 24.9708 5.59894C24.8744 5.55899 24.771 5.53843 24.6666 5.53843C24.5623 5.53843 24.4589 5.55899 24.3624 5.59894C24.266 5.63888 24.1784 5.69744 24.1046 5.77125L22.2916 7.59208V5.86625L24.4371 3.72875C24.5109 3.65494 24.5694 3.56731 24.6094 3.47086C24.6493 3.37442 24.6699 3.27106 24.6699 3.16667C24.6699 3.06228 24.6493 2.95891 24.6094 2.86247C24.5694 2.76603 24.5109 2.6784 24.4371 2.60458C24.3632 2.53077 24.2756 2.47222 24.1792 2.43227C24.0827 2.39232 23.9794 2.37176 23.875 2.37176C23.6642 2.37176 23.462 2.45551 23.3129 2.60458L22.2916 3.63375V2.375C22.2916 2.16504 22.2082 1.96367 22.0598 1.81521C21.9113 1.66674 21.7099 1.58333 21.5 1.58333C21.29 1.58333 21.0887 1.66674 20.9402 1.81521C20.7917 1.96367 20.7083 2.16504 20.7083 2.375V3.63375L19.6871 2.60458C19.6132 2.53077 19.5256 2.47222 19.4292 2.43227C19.3327 2.39232 19.2294 2.37176 19.125 2.37176C19.0206 2.37176 18.9172 2.39232 18.8208 2.43227C18.7243 2.47222 18.6367 2.53077 18.5629 2.60458C18.4138 2.75366 18.3301 2.95585 18.3301 3.16667C18.3301 3.37749 18.4138 3.57968 18.5629 3.72875L20.7083 5.86625V7.59208L18.8954 5.77125C18.8216 5.69744 18.734 5.63888 18.6375 5.59894C18.5411 5.55899 18.4377 5.53843 18.3333 5.53843C18.2289 5.53843 18.1256 5.55899 18.0291 5.59894C17.9327 5.63888 17.845 5.69744 17.7712 5.77125C17.6974 5.84506 17.6389 5.93269 17.5989 6.02914C17.559 6.12558 17.5384 6.22895 17.5384 6.33333C17.5384 6.43772 17.559 6.54109 17.5989 6.63753C17.6389 6.73397 17.6974 6.8216 17.7712 6.89542L19.5921 8.70833H17.8662L15.7287 6.56292C15.5797 6.41384 15.3775 6.33009 15.1666 6.33009C14.9558 6.33009 14.7536 6.41384 14.6046 6.56292C14.4555 6.71199 14.3717 6.91418 14.3717 7.125C14.3717 7.33582 14.4555 7.53801 14.6046 7.68708L15.6337 8.70833H14.375C14.165 8.70833 13.9637 8.79174 13.8152 8.94021C13.6667 9.08867 13.5833 9.29004 13.5833 9.5C13.5833 9.70996 13.6667 9.91133 13.8152 10.0598C13.9637 10.2083 14.165 10.2917 14.375 10.2917H15.6337L14.6046 11.3129C14.5304 11.3865 14.4715 11.4741 14.4313 11.5705C14.3911 11.667 14.3704 11.7705 14.3704 11.875C14.3704 11.9795 14.3911 12.083 14.4313 12.1795C14.4715 12.2759 14.5304 12.3635 14.6046 12.4371C14.6782 12.5113 14.7657 12.5702 14.8622 12.6104C14.9587 12.6506 15.0621 12.6713 15.1666 12.6713C15.2712 12.6713 15.3746 12.6506 15.4711 12.6104C15.5676 12.5702 15.6551 12.5113 15.7287 12.4371L17.8662 10.2917H19.5921L17.7712 12.1046C17.697 12.1782 17.6381 12.2657 17.5979 12.3622C17.5577 12.4587 17.5371 12.5622 17.5371 12.6667C17.5371 12.7712 17.5577 12.8747 17.5979 12.9711C17.6381 13.0676 17.697 13.1552 17.7712 13.2287C17.8448 13.303 17.9324 13.3618 18.0289 13.402C18.1253 13.4422 18.2288 13.4629 18.3333 13.4629C18.4378 13.4629 18.5413 13.4422 18.6378 13.402C18.7342 13.3618 18.8218 13.303 18.8954 13.2287L20.7083 11.4079V13.1338L18.5629 15.2713C18.4138 15.4203 18.3301 15.6225 18.3301 15.8333C18.3301 16.0442 18.4138 16.2463 18.5629 16.3954C18.712 16.5445 18.9142 16.6282 19.125 16.6282C19.3358 16.6282 19.538 16.5445 19.6871 16.3954L20.7083 15.3662V16.625C20.7083 16.835 20.7917 17.0363 20.9402 17.1848C21.0887 17.3333 21.29 17.4167 21.5 17.4167C21.7099 17.4167 21.9113 17.3333 22.0598 17.1848C22.2082 17.0363 22.2916 16.835 22.2916 16.625V15.3662L23.3129 16.3954C23.3865 16.4696 23.4741 16.5285 23.5705 16.5687C23.667 16.6089 23.7705 16.6296 23.875 16.6296C23.9795 16.6296 24.083 16.6089 24.1794 16.5687C24.2759 16.5285 24.3635 16.4696 24.4371 16.3954C24.5113 16.3218 24.5702 16.2343 24.6104 16.1378C24.6505 16.0413 24.6712 15.9378 24.6712 15.8333C24.6712 15.7288 24.6505 15.6253 24.6104 15.5289C24.5702 15.4324 24.5113 15.3448 24.4371 15.2713L22.2916 13.1338V11.4079L24.1046 13.2287C24.1782 13.303 24.2657 13.3618 24.3622 13.402C24.4587 13.4422 24.5621 13.4629 24.6666 13.4629C24.7712 13.4629 24.8746 13.4422 24.9711 13.402C25.0676 13.3618 25.1551 13.303 25.2287 13.2287C25.3029 13.1552 25.3618 13.0676 25.402 12.9711C25.4422 12.8747 25.4629 12.7712 25.4629 12.6667C25.4629 12.5622 25.4422 12.4587 25.402 12.3622C25.3618 12.2657 25.3029 12.1782 25.2287 12.1046L23.4079 10.2917H25.1337L27.2712 12.4371C27.3448 12.5113 27.4324 12.5702 27.5289 12.6104C27.6253 12.6506 27.7288 12.6713 27.8333 12.6713C27.9378 12.6713 28.0413 12.6506 28.1378 12.6104C28.2342 12.5702 28.3218 12.5113 28.3954 12.4371C28.4696 12.3635 28.5285 12.2759 28.5687 12.1795C28.6089 12.083 28.6296 11.9795 28.6296 11.875C28.6296 11.7705 28.6089 11.667 28.5687 11.5705C28.5285 11.4741 28.4696 11.3865 28.3954 11.3129L27.3662 10.2917H28.625C28.8349 10.2917 29.0363 10.2083 29.1848 10.0598C29.3332 9.91133 29.4166 9.70996 29.4166 9.5C29.4166 9.29004 29.3332 9.08867 29.1848 8.94021C29.0363 8.79174 28.8349 8.70833 28.625 8.70833Z" fill="#A5D1F5"/>
<path d="M21 13H19.41L20.71 11.71C20.8032 11.6168 20.8772 11.5061 20.9277 11.3842C20.9781 11.2624 21.0041 11.1319 21.0041 11C21.0041 10.8681 20.9781 10.7376 20.9277 10.6158C20.8772 10.4939 20.8032 10.3832 20.71 10.29C20.6168 10.1968 20.5061 10.1228 20.3842 10.0723C20.2624 10.0219 20.1319 9.99591 20 9.99591C19.8681 9.99591 19.7376 10.0219 19.6158 10.0723C19.4939 10.1228 19.3832 10.1968 19.29 10.29L16.59 13H14.41L16.71 10.71C16.8032 10.6168 16.8772 10.5061 16.9277 10.3842C16.9781 10.2624 17.0041 10.1319 17.0041 10C17.0041 9.86814 16.9781 9.73757 16.9277 9.61575C16.8772 9.49393 16.8032 9.38324 16.71 9.29C16.6168 9.19676 16.5061 9.1228 16.3842 9.07234C16.2624 9.02188 16.1319 8.99591 16 8.99591C15.8681 8.99591 15.7376 9.02188 15.6158 9.07234C15.4939 9.1228 15.3832 9.19676 15.29 9.29L13 11.59V9.41L15.71 6.71C15.8032 6.61676 15.8772 6.50607 15.9277 6.38425C15.9781 6.26243 16.0041 6.13186 16.0041 6C16.0041 5.86814 15.9781 5.73757 15.9277 5.61575C15.8772 5.49393 15.8032 5.38324 15.71 5.29C15.6168 5.19676 15.5061 5.1228 15.3842 5.07234C15.2624 5.02188 15.1319 4.99591 15 4.99591C14.7337 4.99591 14.4783 5.1017 14.29 5.29L13 6.59V5C13 4.73478 12.8946 4.48043 12.7071 4.29289C12.5196 4.10536 12.2652 4 12 4C11.7348 4 11.4804 4.10536 11.2929 4.29289C11.1054 4.48043 11 4.73478 11 5V6.59L9.71 5.29C9.61676 5.19676 9.50607 5.1228 9.38425 5.07234C9.26243 5.02188 9.13186 4.99591 9 4.99591C8.86814 4.99591 8.73757 5.02188 8.61575 5.07234C8.49393 5.1228 8.38324 5.19676 8.29 5.29C8.1017 5.4783 7.99591 5.7337 7.99591 6C7.99591 6.2663 8.1017 6.5217 8.29 6.71L11 9.41V11.59L8.71 9.29C8.61676 9.19676 8.50607 9.1228 8.38425 9.07234C8.26243 9.02188 8.13186 8.99591 8 8.99591C7.86814 8.99591 7.73757 9.02188 7.61575 9.07234C7.49393 9.1228 7.38324 9.19676 7.29 9.29C7.19676 9.38324 7.1228 9.49393 7.07234 9.61575C7.02188 9.73757 6.99591 9.86814 6.99591 10C6.99591 10.1319 7.02188 10.2624 7.07234 10.3842C7.1228 10.5061 7.19676 10.6168 7.29 10.71L9.59 13H7.41L4.71 10.29C4.5217 10.1017 4.2663 9.99591 4 9.99591C3.7337 9.99591 3.4783 10.1017 3.29 10.29C3.1017 10.4783 2.99591 10.7337 2.99591 11C2.99591 11.2663 3.1017 11.5217 3.29 11.71L4.59 13H3C2.73478 13 2.48043 13.1054 2.29289 13.2929C2.10536 13.4804 2 13.7348 2 14C2 14.2652 2.10536 14.5196 2.29289 14.7071C2.48043 14.8946 2.73478 15 3 15H4.59L3.29 16.29C3.19627 16.383 3.12188 16.4936 3.07111 16.6154C3.02034 16.7373 2.9942 16.868 2.9942 17C2.9942 17.132 3.02034 17.2627 3.07111 17.3846C3.12188 17.5064 3.19627 17.617 3.29 17.71C3.38296 17.8037 3.49356 17.8781 3.61542 17.9289C3.73728 17.9797 3.86799 18.0058 4 18.0058C4.13201 18.0058 4.26272 17.9797 4.38458 17.9289C4.50644 17.8781 4.61704 17.8037 4.71 17.71L7.41 15H9.59L7.29 17.29C7.19627 17.383 7.12188 17.4936 7.07111 17.6154C7.02034 17.7373 6.9942 17.868 6.9942 18C6.9942 18.132 7.02034 18.2627 7.07111 18.3846C7.12188 18.5064 7.19627 18.617 7.29 18.71C7.38296 18.8037 7.49356 18.8781 7.61542 18.9289C7.73728 18.9797 7.86799 19.0058 8 19.0058C8.13201 19.0058 8.26272 18.9797 8.38458 18.9289C8.50644 18.8781 8.61704 18.8037 8.71 18.71L11 16.41V18.59L8.29 21.29C8.1017 21.4783 7.99591 21.7337 7.99591 22C7.99591 22.2663 8.1017 22.5217 8.29 22.71C8.4783 22.8983 8.7337 23.0041 9 23.0041C9.2663 23.0041 9.5217 22.8983 9.71 22.71L11 21.41V23C11 23.2652 11.1054 23.5196 11.2929 23.7071C11.4804 23.8946 11.7348 24 12 24C12.2652 24 12.5196 23.8946 12.7071 23.7071C12.8946 23.5196 13 23.2652 13 23V21.41L14.29 22.71C14.383 22.8037 14.4936 22.8781 14.6154 22.9289C14.7373 22.9797 14.868 23.0058 15 23.0058C15.132 23.0058 15.2627 22.9797 15.3846 22.9289C15.5064 22.8781 15.617 22.8037 15.71 22.71C15.8037 22.617 15.8781 22.5064 15.9289 22.3846C15.9797 22.2627 16.0058 22.132 16.0058 22C16.0058 21.868 15.9797 21.7373 15.9289 21.6154C15.8781 21.4936 15.8037 21.383 15.71 21.29L13 18.59V16.41L15.29 18.71C15.383 18.8037 15.4936 18.8781 15.6154 18.9289C15.7373 18.9797 15.868 19.0058 16 19.0058C16.132 19.0058 16.2627 18.9797 16.3846 18.9289C16.5064 18.8781 16.617 18.8037 16.71 18.71C16.8037 18.617 16.8781 18.5064 16.9289 18.3846C16.9797 18.2627 17.0058 18.132 17.0058 18C17.0058 17.868 16.9797 17.7373 16.9289 17.6154C16.8781 17.4936 16.8037 17.383 16.71 17.29L14.41 15H16.59L19.29 17.71C19.383 17.8037 19.4936 17.8781 19.6154 17.9289C19.7373 17.9797 19.868 18.0058 20 18.0058C20.132 18.0058 20.2627 17.9797 20.3846 17.9289C20.5064 17.8781 20.617 17.8037 20.71 17.71C20.8037 17.617 20.8781 17.5064 20.9289 17.3846C20.9797 17.2627 21.0058 17.132 21.0058 17C21.0058 16.868 20.9797 16.7373 20.9289 16.6154C20.8781 16.4936 20.8037 16.383 20.71 16.29L19.41 15H21C21.2652 15 21.5196 14.8946 21.7071 14.7071C21.8946 14.5196 22 14.2652 22 14C22 13.7348 21.8946 13.4804 21.7071 13.2929C21.5196 13.1054 21.2652 13 21 13Z" fill="#5DADEC"/>
<path d="M33 23H31.41L32.71 21.71C32.8032 21.6168 32.8772 21.5061 32.9277 21.3842C32.9781 21.2624 33.0041 21.1319 33.0041 21C33.0041 20.8681 32.9781 20.7376 32.9277 20.6158C32.8772 20.4939 32.8032 20.3832 32.71 20.29C32.6168 20.1968 32.5061 20.1228 32.3842 20.0723C32.2624 20.0219 32.1319 19.9959 32 19.9959C31.8681 19.9959 31.7376 20.0219 31.6158 20.0723C31.4939 20.1228 31.3832 20.1968 31.29 20.29L28.59 23H26.41L28.71 20.71C28.8032 20.6168 28.8772 20.5061 28.9277 20.3842C28.9781 20.2624 29.0041 20.1319 29.0041 20C29.0041 19.8681 28.9781 19.7376 28.9277 19.6158C28.8772 19.4939 28.8032 19.3832 28.71 19.29C28.6168 19.1968 28.5061 19.1228 28.3842 19.0723C28.2624 19.0219 28.1319 18.9959 28 18.9959C27.8681 18.9959 27.7376 19.0219 27.6158 19.0723C27.4939 19.1228 27.3832 19.1968 27.29 19.29L25 21.59V19.41L27.71 16.71C27.8032 16.6168 27.8772 16.5061 27.9277 16.3842C27.9781 16.2624 28.0041 16.1319 28.0041 16C28.0041 15.8681 27.9781 15.7376 27.9277 15.6158C27.8772 15.4939 27.8032 15.3832 27.71 15.29C27.6168 15.1968 27.5061 15.1228 27.3842 15.0723C27.2624 15.0219 27.1319 14.9959 27 14.9959C26.7337 14.9959 26.4783 15.1017 26.29 15.29L25 16.59V15C25 14.7348 24.8946 14.4804 24.7071 14.2929C24.5196 14.1054 24.2652 14 24 14C23.7348 14 23.4804 14.1054 23.2929 14.2929C23.1054 14.4804 23 14.7348 23 15V16.59L21.71 15.29C21.6168 15.1968 21.5061 15.1228 21.3842 15.0723C21.2624 15.0219 21.1319 14.9959 21 14.9959C20.8681 14.9959 20.7376 15.0219 20.6158 15.0723C20.4939 15.1228 20.3832 15.1968 20.29 15.29C20.1017 15.4783 19.9959 15.7337 19.9959 16C19.9959 16.2663 20.1017 16.5217 20.29 16.71L23 19.41V21.59L20.71 19.29C20.6168 19.1968 20.5061 19.1228 20.3842 19.0723C20.2624 19.0219 20.1319 18.9959 20 18.9959C19.8681 18.9959 19.7376 19.0219 19.6158 19.0723C19.4939 19.1228 19.3832 19.1968 19.29 19.29C19.1968 19.3832 19.1228 19.4939 19.0723 19.6158C19.0219 19.7376 18.9959 19.8681 18.9959 20C18.9959 20.1319 19.0219 20.2624 19.0723 20.3842C19.1228 20.5061 19.1968 20.6168 19.29 20.71L21.59 23H19.41L16.71 20.29C16.5217 20.1017 16.2663 19.9959 16 19.9959C15.7337 19.9959 15.4783 20.1017 15.29 20.29C15.1017 20.4783 14.9959 20.7337 14.9959 21C14.9959 21.2663 15.1017 21.5217 15.29 21.71L16.59 23H15C14.7348 23 14.4804 23.1054 14.2929 23.2929C14.1054 23.4804 14 23.7348 14 24C14 24.2652 14.1054 24.5196 14.2929 24.7071C14.4804 24.8946 14.7348 25 15 25H16.59L15.29 26.29C15.1963 26.383 15.1219 26.4936 15.0711 26.6154C15.0203 26.7373 14.9942 26.868 14.9942 27C14.9942 27.132 15.0203 27.2627 15.0711 27.3846C15.1219 27.5064 15.1963 27.617 15.29 27.71C15.383 27.8037 15.4936 27.8781 15.6154 27.9289C15.7373 27.9797 15.868 28.0058 16 28.0058C16.132 28.0058 16.2627 27.9797 16.3846 27.9289C16.5064 27.8781 16.617 27.8037 16.71 27.71L19.41 25H21.59L19.29 27.29C19.1963 27.383 19.1219 27.4936 19.0711 27.6154C19.0203 27.7373 18.9942 27.868 18.9942 28C18.9942 28.132 19.0203 28.2627 19.0711 28.3846C19.1219 28.5064 19.1963 28.617 19.29 28.71C19.383 28.8037 19.4936 28.8781 19.6154 28.9289C19.7373 28.9797 19.868 29.0058 20 29.0058C20.132 29.0058 20.2627 28.9797 20.3846 28.9289C20.5064 28.8781 20.617 28.8037 20.71 28.71L23 26.41V28.59L20.29 31.29C20.1017 31.4783 19.9959 31.7337 19.9959 32C19.9959 32.2663 20.1017 32.5217 20.29 32.71C20.4783 32.8983 20.7337 33.0041 21 33.0041C21.2663 33.0041 21.5217 32.8983 21.71 32.71L23 31.41V33C23 33.2652 23.1054 33.5196 23.2929 33.7071C23.4804 33.8946 23.7348 34 24 34C24.2652 34 24.5196 33.8946 24.7071 33.7071C24.8946 33.5196 25 33.2652 25 33V31.41L26.29 32.71C26.383 32.8037 26.4936 32.8781 26.6154 32.9289C26.7373 32.9797 26.868 33.0058 27 33.0058C27.132 33.0058 27.2627 32.9797 27.3846 32.9289C27.5064 32.8781 27.617 32.8037 27.71 32.71C27.8037 32.617 27.8781 32.5064 27.9289 32.3846C27.9797 32.2627 28.0058 32.132 28.0058 32C28.0058 31.868 27.9797 31.7373 27.9289 31.6154C27.8781 31.4936 27.8037 31.383 27.71 31.29L25 28.59V26.41L27.29 28.71C27.383 28.8037 27.4936 28.8781 27.6154 28.9289C27.7373 28.9797 27.868 29.0058 28 29.0058C28.132 29.0058 28.2627 28.9797 28.3846 28.9289C28.5064 28.8781 28.617 28.8037 28.71 28.71C28.8037 28.617 28.8781 28.5064 28.9289 28.3846C28.9797 28.2627 29.0058 28.132 29.0058 28C29.0058 27.868 28.9797 27.7373 28.9289 27.6154C28.8781 27.4936 28.8037 27.383 28.71 27.29L26.41 25H28.59L31.29 27.71C31.383 27.8037 31.4936 27.8781 31.6154 27.9289C31.7373 27.9797 31.868 28.0058 32 28.0058C32.132 28.0058 32.2627 27.9797 32.3846 27.9289C32.5064 27.8781 32.617 27.8037 32.71 27.71C32.8037 27.617 32.8781 27.5064 32.9289 27.3846C32.9797 27.2627 33.0058 27.132 33.0058 27C33.0058 26.868 32.9797 26.7373 32.9289 26.6154C32.8781 26.4936 32.8037 26.383 32.71 26.29L31.41 25H33C33.2652 25 33.5196 24.8946 33.7071 24.7071C33.8946 24.5196 34 24.2652 34 24C34 23.7348 33.8946 23.4804 33.7071 23.2929C33.5196 23.1054 33.2652 23 33 23Z" fill="#4698D8"/>
</svg>
