<svg width="36" height="36" viewBox="0 0 36 36" fill="none" xmlns="http://www.w3.org/2000/svg">
<g clip-path="url(#clip0_19_242)">
<path d="M13.917 36C13.8456 36 13.7754 35.9816 13.7132 35.9467C13.6509 35.9117 13.5986 35.8614 13.5614 35.8005C13.5242 35.7395 13.5032 35.6701 13.5005 35.5987C13.4978 35.5274 13.5135 35.4566 13.546 35.393L17 29H11.922C11.748 29 11.484 28.969 11.36 28.703C11.246 28.46 11.303 28.229 11.407 28L15 19C15.078 18.933 21.902 19.393 22 19.393C22.0714 19.3933 22.1415 19.4119 22.2036 19.447C22.2657 19.4821 22.3178 19.5326 22.3548 19.5936C22.3918 19.6547 22.4126 19.7241 22.4151 19.7955C22.4176 19.8668 22.4017 19.9376 22.369 20.001L18.552 26.001H23.584C23.758 26.001 23.913 26.109 23.975 26.272C24.0044 26.3518 24.0088 26.4387 23.9876 26.5211C23.9663 26.6035 23.9204 26.6774 23.856 26.733L14.19 35.899C14.1139 35.964 14.0171 35.9998 13.917 36Z" fill="#F4900C"/>
<path d="M28 4C27.175 4 26.38 4.125 25.631 4.357C25.187 3.08468 24.3584 1.98188 23.26 1.20127C22.1615 0.420658 20.8476 0.0008617 19.5 0C16.456 0 13.908 2.096 13.201 4.921C12.4259 4.32641 11.4769 4.00283 10.5 4C9.30653 4 8.16193 4.47411 7.31802 5.31802C6.47411 6.16193 6 7.30653 6 8.5C6 9.104 6.123 9.678 6.339 10.204C5.90404 10.0753 5.45354 10.0067 5 10C2.238 10 0 12.238 0 15C0 17.762 2.238 20 5 20H28C30.1217 20 32.1566 19.1571 33.6569 17.6569C35.1571 16.1566 36 14.1217 36 12C36 9.87827 35.1571 7.84344 33.6569 6.34315C32.1566 4.84285 30.1217 4 28 4Z" fill="#E1E8ED"/>
<circle cx="6.5" cy="33.5" r="1.5" fill="#5DADEC"/>
<circle cx="4.5" cy="27.5" r="1.5" fill="#B4D7F2"/>
<circle cx="9.5" cy="22.5" r="1.5" fill="#5DADEC"/>
<circle cx="26.5" cy="23.5" r="1.5" fill="#B4D7F2"/>
<circle cx="21.5" cy="33.5" r="1.5" fill="#B4D7F2"/>
<circle cx="28.5" cy="29.5" r="1.5" fill="#5DADEC"/>
</g>
<defs>
<clipPath id="clip0_19_242">
<rect width="36" height="36" fill="white"/>
</clipPath>
</defs>
</svg>
