<svg width="36" height="36" viewBox="0 0 36 36" fill="none" xmlns="http://www.w3.org/2000/svg">
<g clip-path="url(#clip0_18_79)">
<path d="M13.917 36C13.8456 36 13.7754 35.9816 13.7131 35.9467C13.6509 35.9117 13.5986 35.8614 13.5614 35.8005C13.5242 35.7395 13.5032 35.6701 13.5005 35.5987C13.4978 35.5274 13.5135 35.4566 13.546 35.393L17 29H11.922C11.748 29 11.484 28.969 11.36 28.703C11.246 28.46 11.303 28.229 11.407 28L15 19C15.078 18.933 21.902 19.393 22 19.393C22.0714 19.3933 22.1415 19.4119 22.2036 19.447C22.2657 19.4821 22.3178 19.5326 22.3548 19.5936C22.3918 19.6547 22.4126 19.7241 22.4151 19.7955C22.4175 19.8668 22.4017 19.9376 22.369 20.001L18.552 26.001H23.584C23.758 26.001 23.913 26.109 23.975 26.272C24.0044 26.3518 24.0088 26.4387 23.9875 26.5211C23.9663 26.6035 23.9204 26.6774 23.856 26.733L14.19 35.899C14.1139 35.964 14.0171 35.9998 13.917 36Z" fill="#F4900C"/>
<path d="M28 4C27.175 4 26.38 4.125 25.631 4.357C25.187 3.08468 24.3584 1.98188 23.26 1.20127C22.1615 0.420658 20.8476 0.0008617 19.5 0C16.456 0 13.908 2.096 13.201 4.921C12.4259 4.32641 11.4769 4.00283 10.5 4C9.30653 4 8.16193 4.47411 7.31802 5.31802C6.47411 6.16193 6 7.30653 6 8.5C6 9.104 6.123 9.678 6.339 10.204C5.90404 10.0753 5.45354 10.0067 5 10C2.238 10 0 12.238 0 15C0 17.762 2.238 20 5 20H28C30.1217 20 32.1566 19.1571 33.6569 17.6569C35.1571 16.1566 36 14.1217 36 12C36 9.87827 35.1571 7.84344 33.6569 6.34315C32.1566 4.84285 30.1217 4 28 4Z" fill="#E1E8ED"/>
<path d="M10.999 24.961L10.886 21.54L8.016 23.248C7.69266 23.4213 7.42427 23.6817 7.24119 23.9996C7.0581 24.3175 6.96763 24.6803 6.98 25.047C7.0011 25.5796 7.23045 26.0827 7.6187 26.4479C8.00695 26.8132 8.52307 27.0114 9.05599 27C9.31813 26.9959 9.57681 26.9396 9.81698 26.8345C10.0571 26.7294 10.274 26.5775 10.4548 26.3877C10.6357 26.1979 10.7769 25.974 10.8704 25.7291C10.9638 25.4841 11.0075 25.223 10.999 24.961ZM8.99899 32.961L8.88599 29.54L6.016 31.248C5.69266 31.4213 5.42427 31.6817 5.24119 31.9996C5.0581 32.3175 4.96763 32.6803 4.98 33.047C5.0011 33.5796 5.23045 34.0827 5.6187 34.4479C6.00695 34.8132 6.52307 35.0114 7.056 35C7.31817 34.996 7.57692 34.9399 7.81715 34.8348C8.05737 34.7297 8.27426 34.5778 8.45514 34.388C8.63602 34.1982 8.77727 33.9742 8.87065 33.7292C8.96403 33.4842 9.00766 33.2231 8.99899 32.961ZM4.02 27.421L3.907 24L1.037 25.708C0.713656 25.8813 0.445269 26.1417 0.262185 26.4596C0.079102 26.7775 -0.0113719 27.1403 0.000995641 27.507C0.0218466 28.0397 0.251121 28.5429 0.639428 28.9082C1.02773 29.2735 1.544 29.4717 2.077 29.46C2.33917 29.456 2.59792 29.3999 2.83815 29.2948C3.07837 29.1897 3.29526 29.0378 3.47614 28.848C3.65702 28.6582 3.79827 28.4342 3.89165 28.1892C3.98503 27.9442 4.02866 27.6831 4.02 27.421ZM29.02 24.961L28.907 21.54L26.038 23.248C25.7145 23.4212 25.446 23.6815 25.2629 23.9994C25.0798 24.3174 24.9894 24.6803 25.002 25.047C25.0228 25.5797 25.2521 26.0829 25.6404 26.4482C26.0287 26.8135 26.545 27.0117 27.078 27C27.3401 26.9959 27.5987 26.9396 27.8388 26.8345C28.0789 26.7294 28.2957 26.5775 28.4765 26.3877C28.6573 26.1979 28.7984 25.974 28.8917 25.729C28.9851 25.4841 29.0287 25.223 29.02 24.961ZM27.02 33.961L26.907 30.54L24.038 32.248C23.7145 32.4212 23.446 32.6815 23.2629 32.9994C23.0798 33.3174 22.9894 33.6803 23.002 34.047C23.0228 34.5797 23.2521 35.0829 23.6404 35.4482C24.0287 35.8135 24.545 36.0117 25.078 36C25.3401 35.9959 25.5987 35.9396 25.8388 35.8345C26.0789 35.7294 26.2957 35.5775 26.4765 35.3877C26.6573 35.1979 26.7984 34.9739 26.8917 34.729C26.9851 34.4841 27.0287 34.223 27.02 33.961ZM33.02 29.961L32.907 26.54L30.038 28.248C29.7145 28.4212 29.446 28.6815 29.2629 28.9994C29.0798 29.3174 28.9894 29.6803 29.002 30.047C29.0228 30.5797 29.2521 31.0829 29.6404 31.4482C30.0287 31.8135 30.545 32.0117 31.078 32C31.3401 31.9959 31.5987 31.9396 31.8388 31.8345C32.0789 31.7294 32.2957 31.5775 32.4765 31.3877C32.6573 31.1979 32.7984 30.974 32.8917 30.729C32.9851 30.4841 33.0287 30.223 33.02 29.961Z" fill="#5DADEC"/>
</g>
<defs>
<clipPath id="clip0_18_79">
<rect width="36" height="36" fill="white"/>
</clipPath>
</defs>
</svg>
