<svg width="36" height="36" viewBox="0 0 36 36" fill="none" xmlns="http://www.w3.org/2000/svg">
<g clip-path="url(#clip0_18_76)">
<path d="M28 4C27.175 4 26.38 4.125 25.631 4.357C25.187 3.08468 24.3584 1.98188 23.26 1.20127C22.1615 0.420658 20.8476 0.0008617 19.5 0C16.456 0 13.908 2.096 13.201 4.921C12.4259 4.32641 11.4769 4.00283 10.5 4C9.30653 4 8.16193 4.47411 7.31802 5.31802C6.47411 6.16193 6 7.30653 6 8.5C6 9.104 6.123 9.678 6.339 10.204C5.90404 10.0753 5.45354 10.0067 5 10C2.238 10 0 12.238 0 15C0 17.762 2.238 20 5 20H28C30.1217 20 32.1566 19.1571 33.6569 17.6569C35.1571 16.1566 36 14.1217 36 12C36 9.87827 35.1571 7.84344 33.6569 6.34315C32.1566 4.84285 30.1217 4 28 4Z" fill="#E1E8ED"/>
<path d="M6.53 26.75C6.46369 26.6352 6.35448 26.5514 6.2264 26.517C6.09831 26.4827 5.96184 26.5007 5.847 26.567L4 27.634V25.5C4 25.3674 3.94732 25.2402 3.85355 25.1464C3.75978 25.0527 3.63261 25 3.5 25C3.36739 25 3.24021 25.0527 3.14644 25.1464C3.05268 25.2402 3 25.3674 3 25.5V27.635L1.151 26.568C1.03603 26.5017 0.899424 26.4838 0.771243 26.5182C0.643062 26.5526 0.533801 26.6365 0.467497 26.7515C0.401193 26.8665 0.383277 27.0031 0.41769 27.1313C0.452103 27.2594 0.536026 27.3687 0.650997 27.435L2.499 28.5L0.650997 29.567C0.594069 29.5998 0.544165 29.6436 0.504134 29.6957C0.464103 29.7478 0.434729 29.8073 0.41769 29.8707C0.40065 29.9342 0.396278 30.0004 0.404824 30.0656C0.41337 30.1307 0.434667 30.1936 0.467497 30.2505C0.500328 30.3074 0.544049 30.3573 0.596166 30.3974C0.648283 30.4374 0.707774 30.4668 0.771243 30.4838C0.834712 30.5008 0.900915 30.5052 0.966074 30.4967C1.03123 30.4881 1.09407 30.4668 1.151 30.434L3 29.366V31.5C3 31.6326 3.05268 31.7598 3.14644 31.8536C3.24021 31.9473 3.36739 32 3.5 32C3.63261 32 3.75978 31.9473 3.85355 31.8536C3.94732 31.7598 4 31.6326 4 31.5V29.367L5.848 30.434C5.90493 30.4668 5.96776 30.4881 6.03292 30.4967C6.09808 30.5052 6.16428 30.5008 6.22775 30.4838C6.29122 30.4668 6.35071 30.4374 6.40283 30.3974C6.45495 30.3573 6.49867 30.3074 6.5315 30.2505C6.56433 30.1936 6.58562 30.1307 6.59417 30.0656C6.60272 30.0004 6.59834 29.9342 6.5813 29.8707C6.56426 29.8073 6.53489 29.7478 6.49486 29.6957C6.45483 29.6436 6.40493 29.5998 6.348 29.567L4.5 28.5L6.348 27.433C6.40487 27.4002 6.45471 27.3565 6.49466 27.3043C6.5346 27.2522 6.56387 27.1927 6.58077 27.1293C6.59768 27.0658 6.6019 26.9997 6.59319 26.9346C6.58447 26.8695 6.563 26.8068 6.53 26.75ZM16.53 30.75C16.4637 30.6352 16.3545 30.5514 16.2264 30.517C16.0983 30.4827 15.9618 30.5007 15.847 30.567L14 31.634V29.5C14 29.3674 13.9473 29.2402 13.8536 29.1464C13.7598 29.0527 13.6326 29 13.5 29C13.3674 29 13.2402 29.0527 13.1464 29.1464C13.0527 29.2402 13 29.3674 13 29.5V31.635L11.151 30.568C11.036 30.5017 10.8994 30.4838 10.7712 30.5182C10.6431 30.5526 10.5338 30.6365 10.4675 30.7515C10.4012 30.8665 10.3833 31.0031 10.4177 31.1313C10.4521 31.2594 10.536 31.3687 10.651 31.435L12.499 32.502L10.651 33.569C10.5941 33.6018 10.5442 33.6456 10.5041 33.6977C10.4641 33.7498 10.4347 33.8093 10.4177 33.8727C10.3833 34.0009 10.4012 34.1375 10.4675 34.2525C10.5338 34.3675 10.6431 34.4514 10.7712 34.4858C10.8994 34.5202 11.036 34.5023 11.151 34.436L13 33.366V35.5C13 35.6326 13.0527 35.7598 13.1464 35.8536C13.2402 35.9473 13.3674 36 13.5 36C13.6326 36 13.7598 35.9473 13.8536 35.8536C13.9473 35.7598 14 35.6326 14 35.5V33.367L15.848 34.434C15.9049 34.4668 15.9678 34.4881 16.0329 34.4967C16.0981 34.5052 16.1643 34.5008 16.2278 34.4838C16.2912 34.4668 16.3507 34.4374 16.4028 34.3974C16.4549 34.3573 16.4987 34.3074 16.5315 34.2505C16.5643 34.1936 16.5856 34.1307 16.5942 34.0656C16.6027 34.0004 16.5983 33.9342 16.5813 33.8707C16.5643 33.8073 16.5349 33.7478 16.4949 33.6957C16.4548 33.6436 16.4049 33.5998 16.348 33.567L14.5 32.5L16.348 31.433C16.4049 31.4002 16.4547 31.3565 16.4947 31.3043C16.5346 31.2522 16.5639 31.1927 16.5808 31.1293C16.5977 31.0658 16.6019 30.9997 16.5932 30.9346C16.5845 30.8695 16.563 30.8068 16.53 30.75ZM11 27.5C11 27.6326 11.0527 27.7598 11.1464 27.8536C11.2402 27.9473 11.3674 28 11.5 28C11.6326 28 11.7598 27.9473 11.8536 27.8536C11.9473 27.7598 12 27.6326 12 27.5V25.367L13.848 26.434C13.9049 26.4668 13.9678 26.4881 14.0329 26.4967C14.0981 26.5052 14.1643 26.5008 14.2278 26.4838C14.2912 26.4668 14.3507 26.4374 14.4028 26.3974C14.4549 26.3573 14.4987 26.3074 14.5315 26.2505C14.5643 26.1936 14.5856 26.1307 14.5942 26.0656C14.6027 26.0004 14.5983 25.9342 14.5813 25.8707C14.5643 25.8073 14.5349 25.7478 14.4949 25.6957C14.4548 25.6436 14.4049 25.5998 14.348 25.567L12.5 24.5L14.348 23.433C14.4563 23.3634 14.5336 23.2548 14.564 23.1298C14.5944 23.0047 14.5755 22.8727 14.5112 22.7612C14.4469 22.6497 14.3421 22.5673 14.2186 22.5309C14.0952 22.4946 13.9625 22.5071 13.848 22.566L12 23.634V21.5C12 21.3674 11.9473 21.2402 11.8536 21.1464C11.7598 21.0527 11.6326 21 11.5 21C11.3674 21 11.2402 21.0527 11.1464 21.1464C11.0527 21.2402 11 21.3674 11 21.5V23.635L9.151 22.568C9.03603 22.5017 8.89942 22.4838 8.77124 22.5182C8.64306 22.5526 8.5338 22.6365 8.4675 22.7515C8.40119 22.8665 8.38328 23.0031 8.41769 23.1313C8.4521 23.2594 8.53603 23.3687 8.651 23.435L10.499 24.502L8.651 25.569C8.53603 25.6353 8.4521 25.7446 8.41769 25.8727C8.38328 26.0009 8.40119 26.1375 8.4675 26.2525C8.5338 26.3675 8.64306 26.4514 8.77124 26.4858C8.89942 26.5202 9.03603 26.5023 9.151 26.436L11 25.366V27.5ZM23.848 27.434C23.9049 27.4668 23.9678 27.4881 24.0329 27.4967C24.0981 27.5052 24.1643 27.5008 24.2278 27.4838C24.2912 27.4668 24.3507 27.4374 24.4028 27.3974C24.4549 27.3573 24.4987 27.3074 24.5315 27.2505C24.5643 27.1936 24.5856 27.1307 24.5942 27.0656C24.6027 27.0004 24.5983 26.9342 24.5813 26.8707C24.5643 26.8073 24.5349 26.7478 24.4949 26.6957C24.4548 26.6436 24.4049 26.5998 24.348 26.567L22.5 25.5L24.348 24.433C24.4563 24.3634 24.5336 24.2548 24.564 24.1298C24.5944 24.0047 24.5755 23.8727 24.5112 23.7612C24.4469 23.6497 24.3421 23.5673 24.2186 23.5309C24.0952 23.4946 23.9625 23.5071 23.848 23.566L22 24.634V22.5C22 22.3674 21.9473 22.2402 21.8535 22.1464C21.7598 22.0527 21.6326 22 21.5 22C21.3674 22 21.2402 22.0527 21.1464 22.1464C21.0527 22.2402 21 22.3674 21 22.5V24.635L19.151 23.568C19.0941 23.5352 19.0312 23.5139 18.9661 23.5053C18.9009 23.4968 18.8347 23.5012 18.7712 23.5182C18.7078 23.5352 18.6483 23.5646 18.5962 23.6046C18.544 23.6447 18.5003 23.6946 18.4675 23.7515C18.4347 23.8084 18.4134 23.8713 18.4048 23.9364C18.3963 24.0016 18.4006 24.0678 18.4177 24.1313C18.4347 24.1947 18.4641 24.2542 18.5041 24.3063C18.5442 24.3584 18.5941 24.4022 18.651 24.435L20.499 25.502L18.651 26.569C18.536 26.6353 18.4521 26.7446 18.4177 26.8727C18.3833 27.0009 18.4012 27.1375 18.4675 27.2525C18.5338 27.3675 18.6431 27.4514 18.7712 27.4858C18.8994 27.5202 19.036 27.5023 19.151 27.436L21 26.366V28.5C21 28.6326 21.0527 28.7598 21.1464 28.8536C21.2402 28.9473 21.3674 29 21.5 29C21.6326 29 21.7598 28.9473 21.8535 28.8536C21.9473 28.7598 22 28.6326 22 28.5V26.367L23.848 27.434ZM34.348 25.567L32.5 24.5L34.348 23.433C34.4563 23.3634 34.5336 23.2548 34.564 23.1298C34.5944 23.0047 34.5755 22.8727 34.5112 22.7612C34.4469 22.6497 34.3421 22.5673 34.2186 22.5309C34.0952 22.4946 33.9625 22.5071 33.848 22.566L32 23.634V21.5C32 21.3674 31.9473 21.2402 31.8535 21.1464C31.7598 21.0527 31.6326 21 31.5 21C31.3674 21 31.2402 21.0527 31.1464 21.1464C31.0527 21.2402 31 21.3674 31 21.5V23.635L29.151 22.568C29.036 22.5017 28.8994 22.4838 28.7712 22.5182C28.6431 22.5526 28.5338 22.6365 28.4675 22.7515C28.4012 22.8665 28.3833 23.0031 28.4177 23.1313C28.4521 23.2594 28.536 23.3687 28.651 23.435L30.499 24.502L28.651 25.569C28.536 25.6353 28.4521 25.7446 28.4177 25.8727C28.3833 26.0009 28.4012 26.1375 28.4675 26.2525C28.5338 26.3675 28.6431 26.4514 28.7712 26.4858C28.8994 26.5202 29.036 26.5023 29.151 26.436L31 25.366V27.5C31 27.6326 31.0527 27.7598 31.1464 27.8536C31.2402 27.9473 31.3674 28 31.5 28C31.6326 28 31.7598 27.9473 31.8535 27.8536C31.9473 27.7598 32 27.6326 32 27.5V25.367L33.848 26.434C33.9625 26.4929 34.0952 26.5054 34.2186 26.4691C34.3421 26.4327 34.4469 26.3503 34.5112 26.2388C34.5755 26.1273 34.5944 25.9953 34.564 25.8702C34.5336 25.7452 34.4563 25.6366 34.348 25.567ZM29.53 30.75C29.4637 30.6352 29.3545 30.5514 29.2264 30.517C29.0983 30.4827 28.9618 30.5007 28.847 30.567L27 31.634V29.5C27 29.3674 26.9473 29.2402 26.8535 29.1464C26.7598 29.0527 26.6326 29 26.5 29C26.3674 29 26.2402 29.0527 26.1464 29.1464C26.0527 29.2402 26 29.3674 26 29.5V31.635L24.151 30.568C24.036 30.5017 23.8994 30.4838 23.7712 30.5182C23.6431 30.5526 23.5338 30.6365 23.4675 30.7515C23.4012 30.8665 23.3833 31.0031 23.4177 31.1313C23.4521 31.2594 23.536 31.3687 23.651 31.435L25.499 32.502L23.651 33.569C23.5941 33.6018 23.5442 33.6456 23.5041 33.6977C23.4641 33.7498 23.4347 33.8093 23.4177 33.8727C23.3833 34.0009 23.4012 34.1375 23.4675 34.2525C23.5338 34.3675 23.6431 34.4514 23.7712 34.4858C23.8994 34.5202 24.036 34.5023 24.151 34.436L26 33.366V35.5C26 35.6326 26.0527 35.7598 26.1464 35.8536C26.2402 35.9473 26.3674 36 26.5 36C26.6326 36 26.7598 35.9473 26.8535 35.8536C26.9473 35.7598 27 35.6326 27 35.5V33.367L28.848 34.434C28.9049 34.4668 28.9678 34.4881 29.0329 34.4967C29.0981 34.5052 29.1643 34.5008 29.2278 34.4838C29.2912 34.4668 29.3507 34.4374 29.4028 34.3974C29.4549 34.3573 29.4987 34.3074 29.5315 34.2505C29.5643 34.1936 29.5856 34.1307 29.5942 34.0656C29.6027 34.0004 29.5983 33.9342 29.5813 33.8707C29.5643 33.8073 29.5349 33.7478 29.4949 33.6957C29.4548 33.6436 29.4049 33.5998 29.348 33.567L27.5 32.5L29.348 31.433C29.4049 31.4002 29.4547 31.3565 29.4947 31.3043C29.5346 31.2522 29.5639 31.1927 29.5808 31.1293C29.5977 31.0658 29.6019 30.9997 29.5932 30.9346C29.5845 30.8695 29.563 30.8068 29.53 30.75Z" fill="#A5D1F5"/>
</g>
<defs>
<clipPath id="clip0_18_76">
<rect width="36" height="36" fill="white"/>
</clipPath>
</defs>
</svg>
