<svg width="36" height="36" viewBox="0 0 36 36" fill="none" xmlns="http://www.w3.org/2000/svg">
<g clip-path="url(#clip0_18_102)">
<path d="M28 4C27.175 4 26.38 4.125 25.631 4.357C25.187 3.08468 24.3584 1.98188 23.26 1.20127C22.1615 0.420658 20.8476 0.0008617 19.5 0C16.456 0 13.908 2.096 13.201 4.921C12.4259 4.32641 11.4769 4.00283 10.5 4C9.30653 4 8.16193 4.47411 7.31802 5.31802C6.47411 6.16193 6 7.30653 6 8.5C6 9.104 6.123 9.678 6.339 10.204C5.90404 10.0753 5.45354 10.0067 5 10C2.238 10 0 12.238 0 15C0 17.762 2.238 20 5 20H28C30.1217 20 32.1566 19.1571 33.6569 17.6569C35.1571 16.1566 36 14.1217 36 12C36 9.87827 35.1571 7.84344 33.6569 6.34315C32.1566 4.84285 30.1217 4 28 4Z" fill="#E1E8ED"/>
<path fill-rule="evenodd" clip-rule="evenodd" d="M10.02 32.421L9.90699 29L7.037 30.708C6.71366 30.8813 6.44527 31.1417 6.26219 31.4596C6.0791 31.7775 5.98863 32.1403 6.001 32.507C6.02185 33.0397 6.25112 33.5429 6.63943 33.9082C7.02773 34.2735 7.544 34.4717 8.077 34.46C8.33917 34.456 8.59792 34.3999 8.83814 34.2948C9.07837 34.1897 9.29526 34.0378 9.47614 33.848C9.65702 33.6582 9.79827 33.4342 9.89165 33.1892C9.98503 32.9442 10.0287 32.6831 10.02 32.421ZM5.02 27.961L4.907 24.54L2.037 26.248C1.71366 26.4213 1.44527 26.6817 1.26219 26.9996C1.0791 27.3175 0.988628 27.6803 1.001 28.047C1.0221 28.5796 1.25145 29.0827 1.6397 29.4479C2.02795 29.8132 2.54407 30.0114 3.077 30C3.33917 29.996 3.59792 29.9399 3.83815 29.8348C4.07837 29.7297 4.29526 29.5778 4.47614 29.388C4.65702 29.1982 4.79827 28.9742 4.89165 28.7292C4.98503 28.4842 5.02866 28.2231 5.02 27.961ZM16.999 28.961L16.886 25.54L14.017 27.248C13.6935 27.4212 13.425 27.6815 13.2419 27.9994C13.0588 28.3174 12.9684 28.6803 12.981 29.047C13.0018 29.5797 13.2311 30.0829 13.6194 30.4482C14.0077 30.8135 14.524 31.0117 15.057 31C15.3191 30.9959 15.5777 30.9396 15.8178 30.8345C16.0579 30.7294 16.2747 30.5775 16.4555 30.3877C16.6363 30.1979 16.7774 29.9739 16.8707 29.729C16.9641 29.4841 17.0077 29.223 16.999 28.961ZM22.02 33.421L21.906 30L19.037 31.708C18.7135 31.8812 18.445 32.1415 18.2619 32.4594C18.0788 32.7774 17.9884 33.1403 18.001 33.507C18.0218 34.0397 18.2511 34.5429 18.6394 34.9082C19.0277 35.2735 19.544 35.4717 20.077 35.46C20.3392 35.456 20.5979 35.3999 20.8381 35.2948C21.0784 35.1897 21.2953 35.0378 21.4761 34.848C21.657 34.6582 21.7983 34.4342 21.8917 34.1892C21.985 33.9442 22.0287 33.6831 22.02 33.421ZM28.999 27.961L28.886 24.54L26.017 26.248C25.6935 26.4212 25.425 26.6815 25.2419 26.9994C25.0588 27.3174 24.9684 27.6803 24.981 28.047C25.0018 28.5797 25.2311 29.0829 25.6194 29.4482C26.0077 29.8135 26.524 30.0117 27.057 30C27.3191 29.9959 27.5777 29.9396 27.8178 29.8345C28.0579 29.7294 28.2747 29.5775 28.4555 29.3877C28.6363 29.1979 28.7774 28.9739 28.8707 28.729C28.9641 28.4841 29.0077 28.223 28.999 27.961Z" fill="#5DADEC"/>
<path d="M11.999 24.961L11.886 21.54L9.016 23.248C8.69266 23.4213 8.42427 23.6817 8.24119 23.9996C8.0581 24.3175 7.96763 24.6803 7.98 25.047C8.00085 25.5797 8.23012 26.0829 8.61843 26.4482C9.00673 26.8135 9.52299 27.0117 10.056 27C10.3181 26.9959 10.5768 26.9396 10.817 26.8345C11.0571 26.7294 11.274 26.5775 11.4548 26.3877C11.6357 26.1979 11.7769 25.974 11.8704 25.7291C11.9638 25.4841 12.0075 25.223 11.999 24.961Z" fill="#B4D7F2"/>
<path d="M23.02 24.961L22.907 21.54L20.038 23.248C19.7145 23.4212 19.446 23.6815 19.2629 23.9994C19.0798 24.3174 18.9894 24.6803 19.002 25.047C19.0228 25.5797 19.2521 26.0829 19.6404 26.4482C20.0287 26.8135 20.545 27.0117 21.078 27C21.3401 26.9959 21.5987 26.9396 21.8388 26.8345C22.0789 26.7294 22.2957 26.5775 22.4765 26.3877C22.6573 26.1979 22.7984 25.9739 22.8917 25.729C22.9851 25.4841 23.0287 25.223 23.02 24.961Z" fill="#B4D7F2"/>
</g>
<defs>
<clipPath id="clip0_18_102">
<rect width="36" height="36" fill="white"/>
</clipPath>
</defs>
</svg>
