<svg width="39" height="28" viewBox="0 0 39 28" fill="none" xmlns="http://www.w3.org/2000/svg">
<g clip-path="url(#clip0_18_231)">
<path d="M23.4444 1.55556C23.4444 1.55556 23.4444 0 25 0C26.5556 0 26.5556 1.55556 26.5556 1.55556V3.11111C26.5556 3.11111 26.5556 4.66667 25 4.66667C23.4444 4.66667 23.4444 3.11111 23.4444 3.11111V1.55556ZM37.4444 12.4444C37.4444 12.4444 39 12.4444 39 14C39 15.5556 37.4444 15.5556 37.4444 15.5556H35.8889C35.8889 15.5556 34.3333 15.5556 34.3333 14C34.3333 12.4444 35.8889 12.4444 35.8889 12.4444H37.4444ZM14.1111 12.4444C14.1111 12.4444 15.6667 12.4444 15.6667 14C15.6667 15.5556 14.1111 15.5556 14.1111 15.5556H12.5556C12.5556 15.5556 11 15.5556 11 14C11 12.4444 12.5556 12.4444 12.5556 12.4444H14.1111ZM18.0941 5.67233C18.0941 5.67233 19.1939 6.77211 18.0941 7.87189C16.9943 8.97167 15.8946 7.87189 15.8946 7.87189L14.794 6.77289C14.794 6.77289 13.6942 5.67311 14.794 4.57256C15.8946 3.47278 16.9943 4.57256 16.9943 4.57256L18.0941 5.67233ZM34.4274 22.0057C34.4274 22.0057 35.5272 23.1054 34.4274 24.2052C33.3277 25.305 32.2279 24.2052 32.2279 24.2052L31.1281 23.1054C31.1281 23.1054 30.0283 22.0057 31.1281 20.9059C32.2279 19.8061 33.3277 20.9059 33.3277 20.9059L34.4274 22.0057ZM34.1062 7.87189C34.1062 7.87189 33.0064 8.97167 31.9067 7.87189C30.8069 6.77211 31.9067 5.67233 31.9067 5.67233L33.0064 4.57256C33.0064 4.57256 34.1062 3.47278 35.206 4.57256C36.3058 5.67233 35.206 6.77211 35.206 6.77211L34.1062 7.87189ZM17.7729 24.2052C17.7729 24.2052 16.6731 25.305 15.5733 24.2052C14.4736 23.1054 15.5733 22.0057 15.5733 22.0057L16.6731 20.9059C16.6731 20.9059 17.7729 19.8061 18.8727 20.9059C19.9724 22.0057 18.8727 23.1054 18.8727 23.1054L17.7729 24.2052ZM23.4444 24.8889C23.4444 24.8889 23.4444 23.3333 25 23.3333C26.5556 23.3333 26.5556 24.8889 26.5556 24.8889V26.4444C26.5556 26.4444 26.5556 28 25 28C23.4444 28 23.4444 26.4444 23.4444 26.4444V24.8889Z" fill="#FFAC33"/>
<path d="M25 21.7778C29.2956 21.7778 32.7778 18.2956 32.7778 14C32.7778 9.70446 29.2956 6.22223 25 6.22223C20.7045 6.22223 17.2222 9.70446 17.2222 14C17.2222 18.2956 20.7045 21.7778 25 21.7778Z" fill="#FFAC33"/>
</g>
<path d="M30.9942 18C30.5272 18 30.0842 18.085 29.6552 18.204C29.8712 17.678 29.9942 17.104 29.9942 16.5C29.9942 15.3065 29.5201 14.1619 28.6761 13.318C27.8322 12.4741 26.6876 12 25.4942 12C24.5172 12.0028 23.5683 12.3264 22.7932 12.921C22.4419 11.516 21.6312 10.2687 20.49 9.37717C19.3488 8.4856 17.9424 8.00088 16.4942 8C15.1466 8.00071 13.8325 8.42045 12.7341 9.20108C11.6356 9.98171 10.807 11.0846 10.3632 12.357C9.26319 12.0169 8.10276 11.9182 6.96116 12.0677C5.81956 12.2172 4.72368 12.6114 3.74838 13.2233C2.77309 13.8352 1.94136 14.6504 1.31001 15.6132C0.678669 16.576 0.262587 17.6638 0.0901902 18.8021C-0.0822064 19.9405 -0.00685495 21.1027 0.311097 22.2092C0.629049 23.3158 1.18211 24.3407 1.9325 25.214C2.68288 26.0872 3.61292 26.7882 4.65906 27.269C5.7052 27.7498 6.84281 27.9992 7.99416 28H30.9942C33.7562 28 35.9942 25.762 35.9942 23C35.9942 20.238 33.7562 18 30.9942 18Z" fill="#E1E8ED"/>
<defs>
<clipPath id="clip0_18_231">
<rect width="28" height="28" fill="white" transform="translate(11)"/>
</clipPath>
</defs>
</svg>
