<svg width="36" height="36" viewBox="0 0 36 36" fill="none" xmlns="http://www.w3.org/2000/svg">
<path d="M30.9992 21C30.5321 21 30.089 21.0935 29.66 21.2244C29.876 20.6458 29.999 20.0144 29.999 19.35C29.999 18.0372 29.5248 16.7781 28.6808 15.8498C27.8367 14.9215 26.692 14.4 25.4983 14.4C24.5212 14.4031 23.5721 14.759 22.7969 15.4131C22.4455 13.8676 21.6347 12.4956 20.4933 11.5149C19.3519 10.5342 17.9453 10.001 16.4968 10C15.149 10.0008 13.8348 10.4625 12.7361 11.3212C11.6375 12.1799 10.8088 13.3931 10.3648 14.7927C9.26469 14.4186 8.10408 14.3101 6.96229 14.4745C5.8205 14.639 4.72444 15.0725 3.74899 15.7456C2.77354 16.4187 1.94167 17.3154 1.31023 18.3745C0.678779 19.4336 0.262629 20.6301 0.0902048 21.8823C-0.0822198 23.1345 -0.00685606 24.4129 0.311148 25.6302C0.629151 26.8474 1.1823 27.9748 1.93281 28.9354C2.68332 29.8959 3.6135 30.667 4.65982 31.1959C5.70613 31.7248 6.84392 31.9991 7.99546 32H30.9992C33.7616 32 36 29.5382 36 26.5C36 23.4618 33.7616 21 30.9992 21Z" fill="#E1E8ED"/>
</svg>
