<svg width="25" height="25" viewBox="0 0 25 25" fill="none" xmlns="http://www.w3.org/2000/svg">
<path d="M21.875 11.4583H20.2188L21.5729 10.1146C21.6701 10.0175 21.7471 9.90216 21.7997 9.77526C21.8522 9.64836 21.8793 9.51235 21.8793 9.375C21.8793 9.23765 21.8522 9.10164 21.7997 8.97474C21.7471 8.84784 21.6701 8.73254 21.5729 8.63542C21.4758 8.53829 21.3605 8.46125 21.2336 8.40869C21.1067 8.35613 20.9707 8.32907 20.8333 8.32907C20.696 8.32907 20.56 8.35613 20.4331 8.40869C20.3062 8.46125 20.1909 8.53829 20.0938 8.63542L17.2813 11.4583H15.0104L17.4063 9.07292C17.5034 8.97579 17.5804 8.86049 17.633 8.73359C17.6856 8.6067 17.7126 8.47069 17.7126 8.33333C17.7126 8.19598 17.6856 8.05997 17.633 7.93307C17.5804 7.80618 17.5034 7.69087 17.4063 7.59375C17.3091 7.49663 17.1938 7.41959 17.0669 7.36702C16.94 7.31446 16.804 7.28741 16.6667 7.28741C16.5293 7.28741 16.3933 7.31446 16.2664 7.36702C16.1395 7.41959 16.0242 7.49663 15.9271 7.59375L13.5417 9.98958V7.71875L16.3646 4.90625C16.4617 4.80913 16.5388 4.69383 16.5913 4.56693C16.6439 4.44003 16.6709 4.30402 16.6709 4.16667C16.6709 4.02931 16.6439 3.89331 16.5913 3.76641C16.5388 3.63951 16.4617 3.52421 16.3646 3.42708C16.2675 3.32996 16.1522 3.25292 16.0253 3.20036C15.8984 3.14779 15.7624 3.12074 15.625 3.12074C15.3476 3.12074 15.0816 3.23093 14.8854 3.42708L13.5417 4.78125V3.125C13.5417 2.84873 13.4319 2.58378 13.2366 2.38843C13.0412 2.19308 12.7763 2.08333 12.5 2.08333C12.2237 2.08333 11.9588 2.19308 11.7634 2.38843C11.5681 2.58378 11.4583 2.84873 11.4583 3.125V4.78125L10.1146 3.42708C10.0175 3.32996 9.90217 3.25292 9.77527 3.20036C9.64837 3.14779 9.51236 3.12074 9.37501 3.12074C9.23766 3.12074 9.10165 3.14779 8.97475 3.20036C8.84785 3.25292 8.73255 3.32996 8.63543 3.42708C8.43928 3.62323 8.32908 3.88927 8.32908 4.16667C8.32908 4.44407 8.43928 4.7101 8.63543 4.90625L11.4583 7.71875V9.98958L9.07293 7.59375C8.9758 7.49663 8.8605 7.41959 8.7336 7.36702C8.60671 7.31446 8.4707 7.28741 8.33334 7.28741C8.19599 7.28741 8.05998 7.31446 7.93308 7.36702C7.80619 7.41959 7.69088 7.49663 7.59376 7.59375C7.49664 7.69087 7.41959 7.80618 7.36703 7.93307C7.31447 8.05997 7.28742 8.19598 7.28742 8.33333C7.28742 8.47069 7.31447 8.6067 7.36703 8.73359C7.41959 8.86049 7.49664 8.97579 7.59376 9.07292L9.98959 11.4583H7.71876L4.90626 8.63542C4.71011 8.43927 4.44407 8.32907 4.16668 8.32907C3.88928 8.32907 3.62324 8.43927 3.42709 8.63542C3.23094 8.83157 3.12075 9.0976 3.12075 9.375C3.12075 9.6524 3.23094 9.91843 3.42709 10.1146L4.78126 11.4583H3.12501C2.84874 11.4583 2.58379 11.5681 2.38844 11.7634C2.19309 11.9588 2.08334 12.2237 2.08334 12.5C2.08334 12.7763 2.19309 13.0412 2.38844 13.2366C2.58379 13.4319 2.84874 13.5417 3.12501 13.5417H4.78126L3.42709 14.8854C3.32946 14.9823 3.25197 15.0975 3.19908 15.2244C3.1462 15.3513 3.11897 15.4875 3.11897 15.625C3.11897 15.7625 3.1462 15.8987 3.19908 16.0256C3.25197 16.1525 3.32946 16.2677 3.42709 16.3646C3.52393 16.4622 3.63914 16.5397 3.76608 16.5926C3.89301 16.6455 4.02916 16.6727 4.16668 16.6727C4.30419 16.6727 4.44034 16.6455 4.56728 16.5926C4.69421 16.5397 4.80942 16.4622 4.90626 16.3646L7.71876 13.5417H9.98959L7.59376 15.9271C7.49613 16.0239 7.41863 16.1391 7.36575 16.2661C7.31286 16.393 7.28564 16.5292 7.28564 16.6667C7.28564 16.8042 7.31286 16.9403 7.36575 17.0673C7.41863 17.1942 7.49613 17.3094 7.59376 17.4063C7.6906 17.5039 7.80581 17.5814 7.93274 17.6343C8.05968 17.6871 8.19583 17.7144 8.33334 17.7144C8.47086 17.7144 8.60701 17.6871 8.73394 17.6343C8.86088 17.5814 8.97609 17.5039 9.07293 17.4063L11.4583 15.0104V17.2813L8.63543 20.0938C8.43928 20.2899 8.32908 20.5559 8.32908 20.8333C8.32908 21.1107 8.43928 21.3768 8.63543 21.5729C8.83158 21.7691 9.09761 21.8793 9.37501 21.8793C9.65241 21.8793 9.91844 21.7691 10.1146 21.5729L11.4583 20.2188V21.875C11.4583 22.1513 11.5681 22.4162 11.7634 22.6116C11.9588 22.8069 12.2237 22.9167 12.5 22.9167C12.7763 22.9167 13.0412 22.8069 13.2366 22.6116C13.4319 22.4162 13.5417 22.1513 13.5417 21.875V20.2188L14.8854 21.5729C14.9823 21.6706 15.0975 21.748 15.2244 21.8009C15.3513 21.8538 15.4875 21.881 15.625 21.881C15.7625 21.881 15.8987 21.8538 16.0256 21.8009C16.1525 21.748 16.2678 21.6706 16.3646 21.5729C16.4622 21.4761 16.5397 21.3609 16.5926 21.2339C16.6455 21.107 16.6727 20.9708 16.6727 20.8333C16.6727 20.6958 16.6455 20.5597 16.5926 20.4327C16.5397 20.3058 16.4622 20.1906 16.3646 20.0938L13.5417 17.2813V15.0104L15.9271 17.4063C16.0239 17.5039 16.1391 17.5814 16.2661 17.6343C16.393 17.6871 16.5292 17.7144 16.6667 17.7144C16.8042 17.7144 16.9403 17.6871 17.0673 17.6343C17.1942 17.5814 17.3094 17.5039 17.4063 17.4063C17.5039 17.3094 17.5814 17.1942 17.6343 17.0673C17.6872 16.9403 17.7144 16.8042 17.7144 16.6667C17.7144 16.5292 17.6872 16.393 17.6343 16.2661C17.5814 16.1391 17.5039 16.0239 17.4063 15.9271L15.0104 13.5417H17.2813L20.0938 16.3646C20.1906 16.4622 20.3058 16.5397 20.4327 16.5926C20.5597 16.6455 20.6958 16.6727 20.8333 16.6727C20.9709 16.6727 21.107 16.6455 21.2339 16.5926C21.3609 16.5397 21.4761 16.4622 21.5729 16.3646C21.6706 16.2677 21.7481 16.1525 21.8009 16.0256C21.8538 15.8987 21.8811 15.7625 21.8811 15.625C21.8811 15.4875 21.8538 15.3513 21.8009 15.2244C21.7481 15.0975 21.6706 14.9823 21.5729 14.8854L20.2188 13.5417H21.875C22.1513 13.5417 22.4162 13.4319 22.6116 13.2366C22.8069 13.0412 22.9167 12.7763 22.9167 12.5C22.9167 12.2237 22.8069 11.9588 22.6116 11.7634C22.4162 11.5681 22.1513 11.4583 21.875 11.4583Z" fill="#5DADEC"/>
</svg>
