<svg width="30" height="26" viewBox="0 0 30 26" fill="none" xmlns="http://www.w3.org/2000/svg">
<g opacity="0.65">
<path d="M27.625 8.70833H26.3662L27.3954 7.68708C27.4692 7.61327 27.5278 7.52564 27.5677 7.4292C27.6077 7.33276 27.6282 7.22939 27.6282 7.125C27.6282 7.02061 27.6077 6.91725 27.5677 6.8208C27.5278 6.72436 27.4692 6.63673 27.3954 6.56292C27.3216 6.4891 27.234 6.43055 27.1375 6.3906C27.0411 6.35066 26.9377 6.33009 26.8333 6.33009C26.7289 6.33009 26.6256 6.35066 26.5291 6.3906C26.4327 6.43055 26.345 6.4891 26.2712 6.56292L24.1337 8.70833H22.4079L24.2287 6.89542C24.3025 6.8216 24.3611 6.73397 24.401 6.63753C24.441 6.54109 24.4616 6.43772 24.4616 6.33333C24.4616 6.22895 24.441 6.12558 24.401 6.02914C24.3611 5.93269 24.3025 5.84506 24.2287 5.77125C24.1549 5.69744 24.0673 5.63888 23.9708 5.59894C23.8744 5.55899 23.771 5.53843 23.6666 5.53843C23.5623 5.53843 23.4589 5.55899 23.3624 5.59894C23.266 5.63888 23.1784 5.69744 23.1046 5.77125L21.2916 7.59208V5.86625L23.4371 3.72875C23.5109 3.65494 23.5694 3.56731 23.6094 3.47086C23.6493 3.37442 23.6699 3.27106 23.6699 3.16667C23.6699 3.06228 23.6493 2.95891 23.6094 2.86247C23.5694 2.76603 23.5109 2.6784 23.4371 2.60458C23.3632 2.53077 23.2756 2.47222 23.1792 2.43227C23.0827 2.39232 22.9794 2.37176 22.875 2.37176C22.6642 2.37176 22.462 2.45551 22.3129 2.60458L21.2916 3.63375V2.375C21.2916 2.16504 21.2082 1.96367 21.0598 1.81521C20.9113 1.66674 20.7099 1.58333 20.5 1.58333C20.29 1.58333 20.0887 1.66674 19.9402 1.81521C19.7917 1.96367 19.7083 2.16504 19.7083 2.375V3.63375L18.6871 2.60458C18.6132 2.53077 18.5256 2.47222 18.4292 2.43227C18.3327 2.39232 18.2294 2.37176 18.125 2.37176C18.0206 2.37176 17.9172 2.39232 17.8208 2.43227C17.7243 2.47222 17.6367 2.53077 17.5629 2.60458C17.4138 2.75366 17.3301 2.95585 17.3301 3.16667C17.3301 3.37749 17.4138 3.57968 17.5629 3.72875L19.7083 5.86625V7.59208L17.8954 5.77125C17.8216 5.69744 17.734 5.63888 17.6375 5.59894C17.5411 5.55899 17.4377 5.53843 17.3333 5.53843C17.2289 5.53843 17.1256 5.55899 17.0291 5.59894C16.9327 5.63888 16.845 5.69744 16.7712 5.77125C16.6974 5.84506 16.6389 5.93269 16.5989 6.02914C16.559 6.12558 16.5384 6.22895 16.5384 6.33333C16.5384 6.43772 16.559 6.54109 16.5989 6.63753C16.6389 6.73397 16.6974 6.8216 16.7712 6.89542L18.5921 8.70833H16.8662L14.7287 6.56292C14.5797 6.41384 14.3775 6.33009 14.1666 6.33009C13.9558 6.33009 13.7536 6.41384 13.6046 6.56292C13.4555 6.71199 13.3717 6.91418 13.3717 7.125C13.3717 7.33582 13.4555 7.53801 13.6046 7.68708L14.6337 8.70833H13.375C13.165 8.70833 12.9637 8.79174 12.8152 8.94021C12.6667 9.08867 12.5833 9.29004 12.5833 9.5C12.5833 9.70996 12.6667 9.91133 12.8152 10.0598C12.9637 10.2083 13.165 10.2917 13.375 10.2917H14.6337L13.6046 11.3129C13.5304 11.3865 13.4715 11.4741 13.4313 11.5705C13.3911 11.667 13.3704 11.7705 13.3704 11.875C13.3704 11.9795 13.3911 12.083 13.4313 12.1795C13.4715 12.2759 13.5304 12.3635 13.6046 12.4371C13.6782 12.5113 13.7657 12.5702 13.8622 12.6104C13.9587 12.6506 14.0621 12.6713 14.1666 12.6713C14.2712 12.6713 14.3746 12.6506 14.4711 12.6104C14.5676 12.5702 14.6551 12.5113 14.7287 12.4371L16.8662 10.2917H18.5921L16.7712 12.1046C16.697 12.1782 16.6381 12.2657 16.5979 12.3622C16.5577 12.4587 16.5371 12.5622 16.5371 12.6667C16.5371 12.7712 16.5577 12.8747 16.5979 12.9711C16.6381 13.0676 16.697 13.1552 16.7712 13.2287C16.8448 13.303 16.9324 13.3618 17.0289 13.402C17.1253 13.4422 17.2288 13.4629 17.3333 13.4629C17.4378 13.4629 17.5413 13.4422 17.6378 13.402C17.7342 13.3618 17.8218 13.303 17.8954 13.2287L19.7083 11.4079V13.1338L17.5629 15.2713C17.4138 15.4203 17.3301 15.6225 17.3301 15.8333C17.3301 16.0442 17.4138 16.2463 17.5629 16.3954C17.712 16.5445 17.9142 16.6282 18.125 16.6282C18.3358 16.6282 18.538 16.5445 18.6871 16.3954L19.7083 15.3662V16.625C19.7083 16.835 19.7917 17.0363 19.9402 17.1848C20.0887 17.3333 20.29 17.4167 20.5 17.4167C20.7099 17.4167 20.9113 17.3333 21.0598 17.1848C21.2082 17.0363 21.2916 16.835 21.2916 16.625V15.3662L22.3129 16.3954C22.3865 16.4696 22.4741 16.5285 22.5705 16.5687C22.667 16.6089 22.7705 16.6296 22.875 16.6296C22.9795 16.6296 23.083 16.6089 23.1794 16.5687C23.2759 16.5285 23.3635 16.4696 23.4371 16.3954C23.5113 16.3218 23.5702 16.2343 23.6104 16.1378C23.6505 16.0413 23.6712 15.9378 23.6712 15.8333C23.6712 15.7288 23.6505 15.6253 23.6104 15.5289C23.5702 15.4324 23.5113 15.3448 23.4371 15.2713L21.2916 13.1338V11.4079L23.1046 13.2287C23.1782 13.303 23.2657 13.3618 23.3622 13.402C23.4587 13.4422 23.5621 13.4629 23.6666 13.4629C23.7712 13.4629 23.8746 13.4422 23.9711 13.402C24.0676 13.3618 24.1551 13.303 24.2287 13.2287C24.3029 13.1552 24.3618 13.0676 24.402 12.9711C24.4422 12.8747 24.4629 12.7712 24.4629 12.6667C24.4629 12.5622 24.4422 12.4587 24.402 12.3622C24.3618 12.2657 24.3029 12.1782 24.2287 12.1046L22.4079 10.2917H24.1337L26.2712 12.4371C26.3448 12.5113 26.4324 12.5702 26.5289 12.6104C26.6253 12.6506 26.7288 12.6713 26.8333 12.6713C26.9378 12.6713 27.0413 12.6506 27.1378 12.6104C27.2342 12.5702 27.3218 12.5113 27.3954 12.4371C27.4696 12.3635 27.5285 12.2759 27.5687 12.1795C27.6089 12.083 27.6296 11.9795 27.6296 11.875C27.6296 11.7705 27.6089 11.667 27.5687 11.5705C27.5285 11.4741 27.4696 11.3865 27.3954 11.3129L26.3662 10.2917H27.625C27.8349 10.2917 28.0363 10.2083 28.1848 10.0598C28.3332 9.91133 28.4166 9.70996 28.4166 9.5C28.4166 9.29004 28.3332 9.08867 28.1848 8.94021C28.0363 8.79174 27.8349 8.70833 27.625 8.70833Z" fill="#A5D1F5"/>
<path d="M21 13H19.41L20.71 11.71C20.8032 11.6168 20.8772 11.5061 20.9277 11.3842C20.9781 11.2624 21.0041 11.1319 21.0041 11C21.0041 10.8681 20.9781 10.7376 20.9277 10.6158C20.8772 10.4939 20.8032 10.3832 20.71 10.29C20.6168 10.1968 20.5061 10.1228 20.3842 10.0723C20.2624 10.0219 20.1319 9.99591 20 9.99591C19.8681 9.99591 19.7376 10.0219 19.6158 10.0723C19.4939 10.1228 19.3832 10.1968 19.29 10.29L16.59 13H14.41L16.71 10.71C16.8032 10.6168 16.8772 10.5061 16.9277 10.3842C16.9781 10.2624 17.0041 10.1319 17.0041 10C17.0041 9.86814 16.9781 9.73757 16.9277 9.61575C16.8772 9.49393 16.8032 9.38324 16.71 9.29C16.6168 9.19676 16.5061 9.1228 16.3842 9.07234C16.2624 9.02188 16.1319 8.99591 16 8.99591C15.8681 8.99591 15.7376 9.02188 15.6158 9.07234C15.4939 9.1228 15.3832 9.19676 15.29 9.29L13 11.59V9.41L15.71 6.71C15.8032 6.61676 15.8772 6.50607 15.9277 6.38425C15.9781 6.26243 16.0041 6.13186 16.0041 6C16.0041 5.86814 15.9781 5.73757 15.9277 5.61575C15.8772 5.49393 15.8032 5.38324 15.71 5.29C15.6168 5.19676 15.5061 5.1228 15.3842 5.07234C15.2624 5.02188 15.1319 4.99591 15 4.99591C14.7337 4.99591 14.4783 5.1017 14.29 5.29L13 6.59V5C13 4.73478 12.8946 4.48043 12.7071 4.29289C12.5196 4.10536 12.2652 4 12 4C11.7348 4 11.4804 4.10536 11.2929 4.29289C11.1054 4.48043 11 4.73478 11 5V6.59L9.71 5.29C9.61676 5.19676 9.50607 5.1228 9.38425 5.07234C9.26243 5.02188 9.13186 4.99591 9 4.99591C8.86814 4.99591 8.73757 5.02188 8.61575 5.07234C8.49393 5.1228 8.38324 5.19676 8.29 5.29C8.1017 5.4783 7.99591 5.7337 7.99591 6C7.99591 6.2663 8.1017 6.5217 8.29 6.71L11 9.41V11.59L8.71 9.29C8.61676 9.19676 8.50607 9.1228 8.38425 9.07234C8.26243 9.02188 8.13186 8.99591 8 8.99591C7.86814 8.99591 7.73757 9.02188 7.61575 9.07234C7.49393 9.1228 7.38324 9.19676 7.29 9.29C7.19676 9.38324 7.1228 9.49393 7.07234 9.61575C7.02188 9.73757 6.99591 9.86814 6.99591 10C6.99591 10.1319 7.02188 10.2624 7.07234 10.3842C7.1228 10.5061 7.19676 10.6168 7.29 10.71L9.59 13H7.41L4.71 10.29C4.5217 10.1017 4.2663 9.99591 4 9.99591C3.7337 9.99591 3.4783 10.1017 3.29 10.29C3.1017 10.4783 2.99591 10.7337 2.99591 11C2.99591 11.2663 3.1017 11.5217 3.29 11.71L4.59 13H3C2.73478 13 2.48043 13.1054 2.29289 13.2929C2.10536 13.4804 2 13.7348 2 14C2 14.2652 2.10536 14.5196 2.29289 14.7071C2.48043 14.8946 2.73478 15 3 15H4.59L3.29 16.29C3.19627 16.383 3.12188 16.4936 3.07111 16.6154C3.02034 16.7373 2.9942 16.868 2.9942 17C2.9942 17.132 3.02034 17.2627 3.07111 17.3846C3.12188 17.5064 3.19627 17.617 3.29 17.71C3.38296 17.8037 3.49356 17.8781 3.61542 17.9289C3.73728 17.9797 3.86799 18.0058 4 18.0058C4.13201 18.0058 4.26272 17.9797 4.38458 17.9289C4.50644 17.8781 4.61704 17.8037 4.71 17.71L7.41 15H9.59L7.29 17.29C7.19627 17.383 7.12188 17.4936 7.07111 17.6154C7.02034 17.7373 6.9942 17.868 6.9942 18C6.9942 18.132 7.02034 18.2627 7.07111 18.3846C7.12188 18.5064 7.19627 18.617 7.29 18.71C7.38296 18.8037 7.49356 18.8781 7.61542 18.9289C7.73728 18.9797 7.86799 19.0058 8 19.0058C8.13201 19.0058 8.26272 18.9797 8.38458 18.9289C8.50644 18.8781 8.61704 18.8037 8.71 18.71L11 16.41V18.59L8.29 21.29C8.1017 21.4783 7.99591 21.7337 7.99591 22C7.99591 22.2663 8.1017 22.5217 8.29 22.71C8.4783 22.8983 8.7337 23.0041 9 23.0041C9.2663 23.0041 9.5217 22.8983 9.71 22.71L11 21.41V23C11 23.2652 11.1054 23.5196 11.2929 23.7071C11.4804 23.8946 11.7348 24 12 24C12.2652 24 12.5196 23.8946 12.7071 23.7071C12.8946 23.5196 13 23.2652 13 23V21.41L14.29 22.71C14.383 22.8037 14.4936 22.8781 14.6154 22.9289C14.7373 22.9797 14.868 23.0058 15 23.0058C15.132 23.0058 15.2627 22.9797 15.3846 22.9289C15.5064 22.8781 15.617 22.8037 15.71 22.71C15.8037 22.617 15.8781 22.5064 15.9289 22.3846C15.9797 22.2627 16.0058 22.132 16.0058 22C16.0058 21.868 15.9797 21.7373 15.9289 21.6154C15.8781 21.4936 15.8037 21.383 15.71 21.29L13 18.59V16.41L15.29 18.71C15.383 18.8037 15.4936 18.8781 15.6154 18.9289C15.7373 18.9797 15.868 19.0058 16 19.0058C16.132 19.0058 16.2627 18.9797 16.3846 18.9289C16.5064 18.8781 16.617 18.8037 16.71 18.71C16.8037 18.617 16.8781 18.5064 16.9289 18.3846C16.9797 18.2627 17.0058 18.132 17.0058 18C17.0058 17.868 16.9797 17.7373 16.9289 17.6154C16.8781 17.4936 16.8037 17.383 16.71 17.29L14.41 15H16.59L19.29 17.71C19.383 17.8037 19.4936 17.8781 19.6154 17.9289C19.7373 17.9797 19.868 18.0058 20 18.0058C20.132 18.0058 20.2627 17.9797 20.3846 17.9289C20.5064 17.8781 20.617 17.8037 20.71 17.71C20.8037 17.617 20.8781 17.5064 20.9289 17.3846C20.9797 17.2627 21.0058 17.132 21.0058 17C21.0058 16.868 20.9797 16.7373 20.9289 16.6154C20.8781 16.4936 20.8037 16.383 20.71 16.29L19.41 15H21C21.2652 15 21.5196 14.8946 21.7071 14.7071C21.8946 14.5196 22 14.2652 22 14C22 13.7348 21.8946 13.4804 21.7071 13.2929C21.5196 13.1054 21.2652 13 21 13Z" fill="#5DADEC"/>
</g>
</svg>
